<?xml version="1.0" encoding="UTF-8" standalone="no"?>
<!-- Created with Inkscape (http://www.inkscape.org/) -->

<svg
   xmlns:dc="http://purl.org/dc/elements/1.1/"
   xmlns:cc="http://creativecommons.org/ns#"
   xmlns:rdf="http://www.w3.org/1999/02/22-rdf-syntax-ns#"
   xmlns:svg="http://www.w3.org/2000/svg"
   xmlns="http://www.w3.org/2000/svg"
   xmlns:sodipodi="http://sodipodi.sourceforge.net/DTD/sodipodi-0.dtd"
   xmlns:inkscape="http://www.inkscape.org/namespaces/inkscape"
   width="1301"
   height="700"
   id="svg2"
   version="1.1"
   inkscape:version="0.48.5 r10040"
   sodipodi:docname="outside_bg.svg"
   inkscape:export-filename="C:\Users\nakayama.akito\workspace_jv11\2014HEW\images\outside_bg.png"
   inkscape:export-xdpi="90"
   inkscape:export-ydpi="90">
  <defs
     id="defs4">
    <inkscape:path-effect
       effect="skeletal"
       id="path-effect5585"
       is_visible="true"
       pattern="m -434.72632,917.60002 c 0,1.11363 0,47.32935 0,47.32935 10.87835,-4.0145 16.52993,-3.8388 22.44594,-15.5432 4.08253,5.103 15.42911,13.9617 11.8199,26.9109 5.17155,-8.4256 16.50114,-4.4799 37.54386,-30.1243 8.11156,5.5975 11.24129,12.6693 14.44791,18.7311 l 0,-47.05061 c -4.98329,8.53547 -10.35393,10.59708 -12.67286,13.18991 -13.03784,-9.29636 -8.01822,-3.29511 -6.52844,-25.00177 0,0 -21.69749,15.74915 -23.42561,23.03313 -2.18843,-9.05129 -15.28485,-27.44718 -27.64987,-30.51398 5.66423,7.49472 11.65612,20.37114 -1.34408,33.66381 1.19117,0 -9.59104,-14.96169 -14.63675,-14.62434 z"
       copytype="repeated"
       prop_scale="0.57"
       scale_y_rel="false"
       spacing="-18.7"
       normal_offset="0"
       tang_offset="0.2"
       prop_units="false"
       vertical_pattern="false"
       fuse_tolerance="0" />
    <inkscape:path-effect
       effect="skeletal"
       id="path-effect4040"
       is_visible="true"
       pattern="M 0,0 1,0"
       copytype="single_stretched"
       prop_scale="1"
       scale_y_rel="false"
       spacing="0"
       normal_offset="0"
       tang_offset="0"
       prop_units="false"
       vertical_pattern="false"
       fuse_tolerance="0" />
    <inkscape:path-effect
       effect="skeletal"
       id="path-effect4020"
       is_visible="true"
       pattern="m -427.89416,979.44075 c 0,1.11363 0,47.32935 0,47.32935 10.87835,-4.0145 16.52993,-3.8388 22.44594,-15.5432 4.08253,5.103 15.42911,13.9617 11.8199,26.9109 5.17155,-8.4256 16.50114,-4.4799 37.54386,-30.1243 8.11156,5.5975 11.24129,12.6693 14.44791,18.7311 l 0,-47.05061 c -4.98329,8.53547 -10.35393,10.59708 -12.67286,13.18991 -13.03784,-9.29636 -8.01822,-3.29511 -6.52844,-25.00177 0,0 -21.69749,15.74915 -23.42561,23.03313 -2.18843,-9.05129 -15.28485,-27.44718 -27.64987,-30.51398 5.66423,7.49472 11.65612,20.37114 -1.34408,33.66381 1.19117,0 -9.59104,-14.96169 -14.63675,-14.62434 z"
       copytype="repeated"
       prop_scale="1"
       scale_y_rel="false"
       spacing="0"
       normal_offset="0"
       tang_offset="0"
       prop_units="false"
       vertical_pattern="false"
       fuse_tolerance="-0.1" />
  </defs>
  <sodipodi:namedview
     id="base"
     pagecolor="#ffffff"
     bordercolor="#666666"
     borderopacity="1.0"
     inkscape:pageopacity="0.0"
     inkscape:pageshadow="2"
     inkscape:zoom="0.5"
     inkscape:cx="623.57816"
     inkscape:cy="469.15479"
     inkscape:document-units="px"
     inkscape:current-layer="layer1"
     showgrid="false"
     width="800px"
     showborder="true"
     inkscape:window-width="1303"
     inkscape:window-height="745"
     inkscape:window-x="55"
     inkscape:window-y="-8"
     inkscape:window-maximized="1"
     showguides="true"
     inkscape:guide-bbox="true" />
  <metadata
     id="metadata7">
    <rdf:RDF>
      <cc:Work
         rdf:about="">
        <dc:format>image/svg+xml</dc:format>
        <dc:type
           rdf:resource="http://purl.org/dc/dcmitype/StillImage" />
        <dc:title></dc:title>
      </cc:Work>
    </rdf:RDF>
  </metadata>
  <g
     inkscape:label="レイヤー 1"
     inkscape:groupmode="layer"
     id="layer1"
     transform="translate(0,-352.36218)">
    <rect
       style="fill:#a0e6e6;fill-opacity:1;stroke:none"
       id="rect3941"
       width="1301"
       height="700"
       x="0"
       y="352.36218"
       inkscape:export-filename="C:\Users\nakayama.akito\workspace_jv11\2014HEW\images\outside_bg.png"
       inkscape:export-xdpi="90"
       inkscape:export-ydpi="90" />
    <rect
       style="fill:#aa835b;fill-opacity:1;stroke:none"
       id="rect3807"
       width="1587.4286"
       height="174.21428"
       x="-203.67351"
       y="932.49225"
       inkscape:export-filename="C:\Users\nakayama.akito\workspace_jv11\2014HEW\images\rect3807.png"
       inkscape:export-xdpi="90"
       inkscape:export-ydpi="90" />
    <path
       style="fill:none;stroke:none;stroke-width:1px;marker-start:none"
       d="m -131.31983,599.35901 c 0,0 0,31.55289 0,47.32933 4.37266,-1.61365 8.99461,-2.65132 13.08385,-4.88787 4.21731,-2.30659 7.1937,-6.3653 9.36209,-10.65531 1.27029,1.58781 2.71355,3.02783 4.07671,4.53666 0,0 1e-5,10e-6 1e-5,10e-6 1.7033,1.88532 3.33644,3.84386 4.71763,5.97646 1.48196,2.28817 2.671947,4.78908 3.275432,7.44761 0.667659,2.94123 0.559893,6.04482 -0.249877,8.95014 -10e-7,10e-6 -3e-6,10e-6 -5e-6,2e-5 1.216391,-1.98177 3.07207,-3.4978 5.088843,-4.65523 2.510313,-1.44067 5.180016,-2.58325 7.731398,-3.94987 9.695708,-5.19341 17.746532,-13.01634 24.723619,-21.5192 3.562386,2.45828 6.62649,5.61434 9.063308,9.19144 3e-6,0 7e-6,10e-6 1.1e-5,10e-6 2.057108,3.01972 3.676086,6.30989 5.384591,9.53965 l 0,-47.05061 c -1.938258,3.31988 -4.399609,6.34179 -7.335565,8.82344 -1.757329,1.48541 -3.803351,2.65134 -5.337295,4.36647 -2.240032,-1.59721 -4.591146,-3.04546 -6.729908,-4.77593 -0.543609,-0.43983 -1.075442,-0.91137 -1.458064,-1.49666 -0.306059,-0.46818 -0.479828,-1.01685 -0.524106,-1.57443 -0.144102,-1.81468 0.417923,-3.60667 0.74176,-5.39803 10e-7,0 2e-6,-10e-6 3e-6,-2e-5 0.702753,-3.88739 1.171386,-7.81557 1.441875,-11.7567 l -11.075285,8.79412 c -2.779597,2.38944 -5.497747,4.86128 -7.965264,7.57181 -3e-6,10e-6 -5e-6,10e-6 -7e-6,10e-6 -1.033877,1.1357 -2.026644,2.31389 -2.883741,3.58829 -0.640439,0.95226 -1.236398,1.9623 -1.501311,3.07889 0,0 -10e-7,10e-6 -2e-6,10e-6 -0.697396,-2.88441 -2.039735,-5.57434 -3.504705,-8.15505 -1.876126,-3.30501 -4.071483,-6.42624 -6.504009,-9.34612 -2.515086,-3.01899 -5.292086,-5.83545 -8.412116,-8.22403 -2.77091,-2.1213 -5.84199,-3.94872 -9.22904,-4.78878 3.24904,4.29902 5.79164,9.29568 6.32712,14.65767 0.30968,3.10089 -0.10179,6.2685 -1.1802,9.19227 -1.36735,3.70716 -3.72827,6.98898 -6.491,9.81387 0.0312,0 0.063,-0.0151 0.0771,-0.0429 0.0192,-0.0378 0.0159,-0.083 0.0102,-0.12502 0,-10e-6 0,-10e-6 0,-10e-6 -0.0225,-0.16667 -0.0962,-0.32189 -0.16733,-0.47428 0,0 0,0 0,-10e-6 -0.27678,-0.59286 -0.63457,-1.14417 -0.99494,-1.69026 -1.18089,-1.78945 -2.50747,-3.47998 -3.90463,-5.10619 -1.55615,-1.81124 -3.20608,-3.55535 -5.07405,-5.04293 -0.76756,-0.61125 -1.57419,-1.18231 -2.45671,-1.6112 -0.66433,-0.32285 -1.38947,-0.5808 -2.12645,-0.53153 z m 86.25761,0 c 0,0 0,31.55289 0,47.32933 4.372656,-1.61365 8.994606,-2.65132 13.083848,-4.88787 4.217311,-2.30659 7.1937,-6.3653 9.362092,-10.65531 1.270288,1.58781 2.713545,3.02783 4.076708,4.53666 5e-6,0 9e-6,10e-6 1.4e-5,10e-6 1.7033,1.88532 3.336441,3.84386 4.71763,5.97645 1.481958,2.28818 2.671945,4.78909 3.27543,7.44762 0.6676597,2.94123 0.5598926,6.04483 -0.249879,8.95015 -1e-6,0 -2e-6,10e-6 -3e-6,10e-6 1.2163911,-1.98177 3.0720697,-3.4978 5.0888433,-4.65523 2.5103131,-1.44067 5.18001537,-2.58325 7.731398,-3.94987 9.6957077,-5.19341 17.7465317,-13.01634 24.7236187,-21.5192 3.562386,2.45828 6.62649,5.61434 9.063307,9.19144 4e-6,0 8e-6,10e-6 1.2e-5,10e-6 2.057108,3.01972 3.676086,6.30989 5.384591,9.53965 l 0,-47.05061 c -1.938258,3.31988 -4.399609,6.34179 -7.335565,8.82344 -1.757329,1.48541 -3.803351,2.65134 -5.337295,4.36647 -2.240032,-1.59721 -4.591146,-3.04546 -6.729908,-4.77593 -0.543609,-0.43983 -1.075442,-0.91137 -1.458064,-1.49666 -0.306059,-0.46818 -0.479828,-1.01685 -0.524106,-1.57443 -0.144102,-1.81468 0.417923,-3.60667 0.74176,-5.39803 10e-7,0 2e-6,-10e-6 3e-6,-2e-5 0.702753,-3.88739 1.171386,-7.81557 1.441875,-11.7567 l -11.075285,8.79412 c -2.7795948,2.38944 -5.4977415,4.86128 -7.9652574,7.57181 -4.6e-6,0 -9.2e-6,10e-6 -1.38e-5,10e-6 -1.0338767,1.1357 -2.02664362,2.31389 -2.88374056,3.58829 -3.8e-6,10e-6 -7.61e-6,10e-6 -1.141e-5,2e-5 -0.64043454,0.95225 -1.23638863,1.96229 -1.50129943,3.07887 -8e-7,0 -1.6e-6,10e-6 -2.4e-6,10e-6 -0.6973965,-2.88441 -2.0397346,-5.57434 -3.5047052,-8.15505 -1.8761261,-3.30501 -4.0714824,-6.42624 -6.5040088,-9.34612 -2.515084,-3.01899 -5.292086,-5.83545 -8.412119,-8.22403 -2.770907,-2.1213 -5.841982,-3.94872 -9.229037,-4.78878 4e-6,1e-5 8e-6,1e-5 1.2e-5,2e-5 3.24903,4.29901 5.791626,9.29566 6.327109,14.65765 0.309675,3.10089 -0.101792,6.2685 -1.180197,9.19227 -1.36735,3.70716 -3.72827,6.98898 -6.491004,9.81387 0.03116,0 0.06302,-0.0151 0.07713,-0.0429 0.01921,-0.0378 0.01589,-0.083 0.01022,-0.12502 0,-10e-6 -10e-7,-10e-6 -10e-7,-10e-6 -0.02248,-0.16667 -0.09619,-0.32189 -0.167325,-0.47428 -1e-6,0 -2e-6,0 -4e-6,-10e-6 -0.276772,-0.59286 -0.634565,-1.14417 -0.99494,-1.69026 -1.180888,-1.78945 -2.50747,-3.47998 -3.904631,-5.10619 -1.556139,-1.81124 -3.206069,-3.55535 -5.074038,-5.04292 -2e-6,0 -5e-6,0 -8e-6,-10e-6 -0.767564,-0.61125 -1.574188,-1.18231 -2.456709,-1.6112 -0.664334,-0.32285 -1.389466,-0.5808 -2.12645,-0.53153 z m 86.25761,0 c 0,0 0,31.55289 0,47.32933 4.372656,-1.61365 8.994606,-2.65132 13.083848,-4.88787 4.217311,-2.30659 7.1937,-6.3653 9.362092,-10.65531 1.270292,1.58781 2.713555,3.02784 4.076722,4.53667 1.7033,1.88532 3.336441,3.84386 4.717631,5.97646 1.481957,2.28817 2.671944,4.78908 3.275429,7.44761 0.667659,2.94123 0.559893,6.04482 -0.249877,8.95014 -10e-7,10e-6 -3e-6,10e-6 -5e-6,2e-5 1.216391,-1.98177 3.07207,-3.4978 5.088843,-4.65523 2.510313,-1.44067 5.180016,-2.58325 7.731398,-3.94987 9.695708,-5.19341 17.746529,-13.01634 24.723619,-21.5192 3.56239,2.45828 6.62649,5.61434 9.06331,9.19144 0,0 1e-5,10e-6 1e-5,10e-6 2.05711,3.01972 3.67608,6.30989 5.38459,9.53965 l 0,-47.05061 c -1.93826,3.31988 -4.39961,6.34179 -7.33556,8.82344 -1.75733,1.48541 -3.80336,2.65134 -5.3373,4.36647 -2.24003,-1.59721 -4.59115,-3.04546 -6.72991,-4.77593 -0.54361,-0.43983 -1.07544,-0.91137 -1.45806,-1.49666 -0.30606,-0.46818 -0.47983,-1.01685 -0.52411,-1.57443 -0.1441,-1.81468 0.41792,-3.60667 0.74176,-5.39803 0.70276,-3.8874 1.17139,-7.81558 1.44188,-11.75672 -0.006,0.004 -0.0114,0.008 -0.017,0.0123 -0.0159,0.0116 -0.0318,0.0232 -0.0477,0.0348 -0.0614,0.0448 -0.12263,0.0898 -0.18386,0.13478 0,0 -1e-5,1e-5 -1e-5,1e-5 -0.23227,0.17076 -0.46382,0.3425 -0.69493,0.51483 -0.83382,0.62177 -1.66183,1.25132 -2.48528,1.88676 -2.59991,2.00628 -5.15617,4.0698 -7.646505,6.21059 -2.7796,2.38945 -5.497752,4.86129 -7.965271,7.57182 -1.033877,1.1357 -2.026644,2.31389 -2.883741,3.58829 -0.640441,0.95226 -1.236402,1.96231 -1.501313,3.0789 -0.697396,-2.88441 -2.039735,-5.57434 -3.504705,-8.15505 -1.876126,-3.30501 -4.071483,-6.42624 -6.504009,-9.34612 -2.515084,-3.01899 -5.292086,-5.83545 -8.412119,-8.22403 -2.770907,-2.1213 -5.841982,-3.94872 -9.229037,-4.78878 3.249036,4.29902 5.791637,9.29568 6.327121,14.65767 0.309675,3.10089 -0.101792,6.2685 -1.180197,9.19227 -1.36735,3.70716 -3.72827,6.98898 -6.491004,9.81387 0.03116,0 0.06302,-0.0151 0.07713,-0.0429 3e-6,-10e-6 7e-6,-10e-6 10e-6,-2e-5 0.0192,-0.0378 0.01588,-0.083 0.01021,-0.125 0,-10e-6 -1e-6,-10e-6 -1e-6,-10e-6 -0.02248,-0.16667 -0.09618,-0.32189 -0.167325,-0.47428 -10e-7,0 -2e-6,0 -4e-6,-10e-6 -0.276772,-0.59286 -0.634565,-1.14417 -0.99494,-1.69026 -1.180888,-1.78945 -2.50747,-3.47998 -3.904631,-5.10619 -4e-6,0 -9e-6,-10e-6 -1.3e-5,-10e-6 -1.556135,-1.81124 -3.206061,-3.55534 -5.074025,-5.04291 -2e-6,0 -5e-6,0 -8e-6,-10e-6 -0.767564,-0.61125 -1.574188,-1.18231 -2.456709,-1.6112 -0.664334,-0.32285 -1.389466,-0.5808 -2.12645,-0.53153 z m 86.25761,0 c 0,0 0,31.55289 0,47.32933 4.37266,-1.61365 8.99461,-2.65132 13.08385,-4.88787 4.21731,-2.30659 7.1937,-6.3653 9.36209,-10.65531 1.27029,1.58781 2.71355,3.02783 4.07671,4.53666 0,0 1e-5,10e-6 1e-5,2e-5 1.7033,1.88531 3.33644,3.84385 4.71763,5.97644 1.48196,2.28818 2.67195,4.78909 3.27543,7.44762 0.66766,2.94123 0.55989,6.04483 -0.24988,8.95015 0,0 0,10e-6 0,10e-6 1.21639,-1.98177 3.07207,-3.4978 5.08884,-4.65523 2.51032,-1.44067 5.18002,-2.58325 7.7314,-3.94987 9.69571,-5.19341 17.74653,-13.01634 24.72362,-21.5192 3.56239,2.45828 6.62649,5.61434 9.06331,9.19144 0,0 1e-5,10e-6 1e-5,10e-6 2.05711,3.01972 3.67608,6.30989 5.38459,9.53965 l 0,-47.05061 c -1.93826,3.31988 -4.39961,6.34179 -7.33556,8.82344 -1.75733,1.48541 -3.80336,2.65134 -5.3373,4.36647 -2.24003,-1.59721 -4.59115,-3.04546 -6.72991,-4.77593 0,0 -1e-5,-1e-5 -1e-5,-1e-5 -0.54361,-0.43983 -1.07543,-0.91137 -1.45805,-1.49665 -0.30606,-0.46818 -0.47983,-1.01685 -0.52411,-1.57443 -0.1441,-1.81468 0.41792,-3.60667 0.74176,-5.39803 0,0 0,-10e-6 1e-5,-2e-5 0.70275,-3.88739 1.17138,-7.81557 1.44187,-11.7567 -3e-5,2e-5 -4e-5,3e-5 -4e-5,3e-5 -0.006,0.004 -0.0113,0.008 -0.0169,0.0123 -0.0159,0.0116 -0.0318,0.0232 -0.0477,0.0348 0,0 0,0 -10e-6,0 -0.0614,0.0448 -0.12264,0.0898 -0.18387,0.13479 0,0 0,0 0,0 -0.23227,0.17076 -0.46382,0.3425 -0.69493,0.51483 -0.83382,0.62177 -1.66183,1.25132 -2.48528,1.88676 -2.59991,2.00628 -5.15617,4.0698 -7.6465,6.21059 -2.7796,2.38945 -5.49776,4.86129 -7.96528,7.57182 0,10e-6 -1e-5,10e-6 -1e-5,2e-5 -1.03387,1.13569 -2.02663,2.31388 -2.88373,3.58827 -0.64044,0.95226 -1.2364,1.96231 -1.50131,3.0789 -0.6974,-2.88441 -2.03973,-5.57434 -3.50471,-8.15505 -1.87612,-3.30501 -4.07148,-6.42624 -6.504,-9.34612 -2.51509,-3.01899 -5.29209,-5.83545 -8.41212,-8.22403 -2.77091,-2.1213 -5.84199,-3.94872 -9.22904,-4.78878 3.24904,4.29902 5.79164,9.29568 6.32712,14.65767 0.30968,3.10089 -0.10179,6.2685 -1.1802,9.19227 -1.36735,3.70716 -3.72827,6.98898 -6.491,9.81387 0.0312,0 0.063,-0.0151 0.0771,-0.0429 1e-5,-10e-6 1e-5,-10e-6 1e-5,-2e-5 0.0192,-0.0378 0.0159,-0.083 0.0102,-0.125 0,-10e-6 0,-10e-6 0,-10e-6 -0.0225,-0.16667 -0.0962,-0.32189 -0.16733,-0.47428 0,0 0,0 0,-10e-6 -0.27678,-0.59286 -0.63457,-1.14417 -0.99494,-1.69026 -1.18089,-1.78945 -2.50747,-3.47998 -3.90463,-5.10619 -1.55614,-1.81124 -3.20607,-3.55535 -5.07404,-5.04292 -1e-5,0 -1e-5,0 -1e-5,-10e-6 -0.76756,-0.61125 -1.57419,-1.18231 -2.45671,-1.6112 -0.66433,-0.32285 -1.38947,-0.5808 -2.12645,-0.53153 z m 86.25761,0 c 0,0 0,31.55289 0,47.32933 4.37266,-1.61365 8.99461,-2.65132 13.08385,-4.88787 4.21731,-2.30659 7.1937,-6.3653 9.36209,-10.65531 1.27029,1.58781 2.71355,3.02784 4.07672,4.53667 0,0 0,0 0,10e-6 1.7033,1.88531 3.33644,3.84385 4.71763,5.97644 1.48196,2.28818 2.67195,4.78909 3.27543,7.44762 0.66766,2.94123 0.55989,6.04483 -0.24988,8.95015 0,0 0,10e-6 0,10e-6 1.21639,-1.98177 3.07207,-3.4978 5.08884,-4.65523 2.51032,-1.44067 5.18002,-2.58325 7.7314,-3.94987 9.69571,-5.19341 17.74653,-13.01634 24.72362,-21.5192 3.56239,2.45828 6.62649,5.61434 9.06331,9.19144 0,0 1e-5,10e-6 1e-5,10e-6 2.05711,3.01972 3.67608,6.30989 5.38459,9.53965 l 0,-47.05061 c -1.93826,3.31988 -4.39961,6.34179 -7.33557,8.82345 -1.75732,1.4854 -3.80335,2.65133 -5.33729,4.36646 -2.24003,-1.59721 -4.59115,-3.04546 -6.72991,-4.77593 -0.54361,-0.43983 -1.07544,-0.91137 -1.45806,-1.49666 -0.30606,-0.46818 -0.47983,-1.01685 -0.52411,-1.57443 -0.1441,-1.81468 0.41792,-3.60667 0.74176,-5.39803 0.70276,-3.8874 1.17139,-7.81558 1.44188,-11.75672 -0.006,0.004 -0.0114,0.008 -0.017,0.0123 -0.0159,0.0116 -0.0318,0.0232 -0.0477,0.0348 0,0 0,0 -10e-6,0 -0.0614,0.0448 -0.12263,0.0898 -0.18386,0.13478 0,0 -10e-6,1e-5 -10e-6,1e-5 -0.23227,0.17076 -0.46382,0.3425 -0.69493,0.51483 -0.83382,0.62177 -1.66183,1.25132 -2.48528,1.88676 -2.59991,2.00628 -5.15617,4.0698 -7.6465,6.21059 -2.7796,2.38945 -5.49776,4.86129 -7.96528,7.57182 0,10e-6 -10e-6,10e-6 -10e-6,2e-5 -1.03387,1.13569 -2.02663,2.31388 -2.88373,3.58827 -0.64044,0.95226 -1.2364,1.96231 -1.50131,3.0789 -0.6974,-2.88441 -2.03973,-5.57434 -3.50471,-8.15505 -1.87612,-3.30501 -4.07148,-6.42624 -6.504,-9.34612 -2.51509,-3.01899 -5.29209,-5.83545 -8.41212,-8.22403 -2.77091,-2.1213 -5.84199,-3.94872 -9.22904,-4.78878 3.24904,4.29902 5.79164,9.29568 6.32712,14.65767 0.30968,3.10089 -0.10179,6.2685 -1.1802,9.19227 -1.36735,3.70716 -3.72827,6.98898 -6.491,9.81387 0.0312,0 0.063,-0.0151 0.0771,-0.0429 1e-5,-10e-6 1e-5,-10e-6 1e-5,-2e-5 0.0192,-0.0378 0.0159,-0.083 0.0102,-0.125 0,-10e-6 0,-10e-6 0,-10e-6 -0.0225,-0.16667 -0.0962,-0.32189 -0.16733,-0.47428 0,0 0,0 0,-10e-6 -0.27678,-0.59286 -0.63457,-1.14417 -0.99494,-1.69026 -1.18089,-1.78945 -2.50747,-3.47998 -3.90463,-5.10619 -1.55614,-1.81124 -3.20607,-3.55535 -5.07404,-5.04292 -1e-5,0 -1e-5,0 -1e-5,-10e-6 -0.76756,-0.61125 -1.57419,-1.18231 -2.45671,-1.6112 -0.66433,-0.32285 -1.38947,-0.5808 -2.12645,-0.53153 z m 86.25761,0 c 0,0 0,31.55289 0,47.32933 4.37266,-1.61365 8.99461,-2.65132 13.08385,-4.88787 4.21731,-2.30659 7.1937,-6.3653 9.36209,-10.65531 1.27029,1.58781 2.71355,3.02784 4.07672,4.53667 0,0 0,0 0,0 1.7033,1.88532 3.33644,3.84386 4.71763,5.97646 1.48196,2.28817 2.67195,4.78908 3.27543,7.44761 0.66766,2.94123 0.55989,6.04483 -0.24988,8.95015 0,0 0,10e-6 0,10e-6 1.21639,-1.98177 3.07207,-3.4978 5.08884,-4.65523 2.51032,-1.44067 5.18002,-2.58325 7.7314,-3.94987 9.69571,-5.19341 17.74653,-13.01634 24.72362,-21.5192 3.56239,2.45828 6.62649,5.61434 9.06331,9.19144 0,0 1e-5,10e-6 1e-5,10e-6 2.05711,3.01972 3.67608,6.30989 5.38459,9.53965 l 0,-47.05061 c -1.93826,3.31988 -4.39961,6.34179 -7.33556,8.82344 -1.75733,1.48541 -3.80336,2.65134 -5.3373,4.36647 -2.24003,-1.59721 -4.59115,-3.04546 -6.72991,-4.77593 -0.54361,-0.43983 -1.07544,-0.91137 -1.45806,-1.49666 -0.30606,-0.46818 -0.47983,-1.01685 -0.52411,-1.57443 -0.1441,-1.81468 0.41792,-3.60667 0.74176,-5.39803 0.70276,-3.8874 1.17139,-7.81558 1.44188,-11.75672 -3e-5,2e-5 -4e-5,3e-5 -4e-5,3e-5 -0.006,0.004 -0.0113,0.008 -0.0169,0.0123 -0.0159,0.0116 -0.0318,0.0232 -0.0477,0.0348 -0.0614,0.0448 -0.12263,0.0898 -0.18386,0.13478 0,0 -10e-6,1e-5 -10e-6,1e-5 -0.23227,0.17076 -0.46382,0.3425 -0.69493,0.51483 -0.83382,0.62177 -1.66183,1.25132 -2.48528,1.88676 -2.59991,2.00627 -5.15616,4.0698 -7.64649,6.21058 0,0 -10e-6,0 -10e-6,10e-6 -2.7796,2.38945 -5.49776,4.86129 -7.96528,7.57182 -1.03387,1.1357 -2.02664,2.31389 -2.88374,3.58829 -0.64044,0.95226 -1.2364,1.96231 -1.50131,3.0789 -0.6974,-2.88441 -2.03973,-5.57434 -3.50471,-8.15505 -1.87612,-3.30501 -4.07148,-6.42624 -6.504,-9.34612 -2.51509,-3.01899 -5.29209,-5.83545 -8.41212,-8.22403 -2.77091,-2.1213 -5.84199,-3.94872 -9.22904,-4.78878 0,1e-5 10e-6,1e-5 10e-6,2e-5 3.24903,4.29901 5.79163,9.29566 6.32711,14.65765 0.30968,3.10089 -0.10179,6.2685 -1.1802,9.19227 -1.36735,3.70716 -3.72827,6.98898 -6.491,9.81387 0.0312,0 0.063,-0.0151 0.0771,-0.0429 1e-5,-10e-6 1e-5,-10e-6 1e-5,-2e-5 0.0192,-0.0378 0.0159,-0.083 0.0102,-0.125 0,-10e-6 0,-10e-6 0,-10e-6 -0.0225,-0.16667 -0.0962,-0.32189 -0.16733,-0.47428 0,0 0,0 0,-10e-6 -0.27678,-0.59286 -0.63457,-1.14417 -0.99494,-1.69026 -1.18089,-1.78945 -2.50747,-3.47998 -3.90463,-5.10619 -1.55614,-1.81124 -3.20607,-3.55534 -5.07403,-5.04291 -10e-6,-10e-6 -2e-5,-10e-6 -2e-5,-2e-5 -0.76756,-0.61125 -1.57419,-1.18231 -2.45671,-1.6112 -0.66433,-0.32285 -1.38947,-0.5808 -2.12645,-0.53153 z m 86.25761,0 c 0,0 0,31.55289 0,47.32933 4.37266,-1.61365 8.99461,-2.65132 13.08385,-4.88787 4.21731,-2.30659 7.1937,-6.3653 9.36209,-10.65531 1.27029,1.58781 2.71355,3.02783 4.07671,4.53666 0,0 1e-5,10e-6 1e-5,10e-6 1.7033,1.88532 3.33644,3.84386 4.71763,5.97646 1.48196,2.28817 2.67195,4.78908 3.27543,7.44761 0.66766,2.94123 0.55989,6.04483 -0.24988,8.95015 0,0 0,10e-6 0,10e-6 1.21639,-1.98177 3.07207,-3.4978 5.08884,-4.65523 2.51032,-1.44067 5.18002,-2.58325 7.7314,-3.94987 9.69571,-5.19341 17.74653,-13.01634 24.72362,-21.5192 3.56239,2.45828 6.62649,5.61434 9.06331,9.19144 0,0 1e-5,10e-6 1e-5,10e-6 2.05711,3.01972 3.67608,6.30989 5.38459,9.53965 l 0,-47.05061 c -1.93826,3.31988 -4.39961,6.34179 -7.33556,8.82344 -1.75733,1.48541 -3.80336,2.65134 -5.3373,4.36647 -2.24003,-1.59721 -4.59115,-3.04546 -6.72991,-4.77593 -0.54361,-0.43983 -1.07544,-0.91137 -1.45806,-1.49666 -0.30606,-0.46818 -0.47983,-1.01685 -0.52411,-1.57443 -0.1441,-1.81468 0.41792,-3.60667 0.74176,-5.39803 0,0 0,-10e-6 10e-6,-2e-5 0.70275,-3.88739 1.17138,-7.81557 1.44187,-11.7567 l -11.07528,8.79412 c -2.7796,2.38944 -5.49775,4.86128 -7.96527,7.57181 0,10e-6 0,10e-6 -10e-6,10e-6 -1.03387,1.1357 -2.02664,2.31389 -2.88374,3.58829 0,10e-6 0,10e-6 -1e-5,2e-5 -0.64043,0.95225 -1.23639,1.96229 -1.5013,3.07887 0,0 0,10e-6 0,10e-6 -0.6974,-2.88441 -2.03973,-5.57434 -3.50471,-8.15505 -1.87612,-3.30501 -4.07148,-6.42624 -6.504,-9.34612 -2.51509,-3.01899 -5.29209,-5.83545 -8.41212,-8.22403 -2.77091,-2.1213 -5.84199,-3.94872 -9.22904,-4.78878 3.24904,4.29902 5.79164,9.29568 6.32712,14.65767 0.30968,3.10089 -0.10179,6.2685 -1.1802,9.19227 -1.36735,3.70716 -3.72827,6.98898 -6.491,9.81387 0.0312,0 0.063,-0.0151 0.0771,-0.0429 0.0192,-0.0378 0.0159,-0.083 0.0102,-0.12502 0,-10e-6 0,-10e-6 0,-10e-6 -0.0225,-0.16667 -0.0962,-0.32189 -0.16733,-0.47428 0,0 0,0 0,-10e-6 -0.27678,-0.59286 -0.63457,-1.14417 -0.99494,-1.69026 -1.18089,-1.78945 -2.50747,-3.47998 -3.90463,-5.10619 -1.55614,-1.81124 -3.20607,-3.55535 -5.07404,-5.04292 -1e-5,0 -1e-5,0 -1e-5,-10e-6 -0.76756,-0.61125 -1.57419,-1.18231 -2.45671,-1.6112 -0.66433,-0.32285 -1.38947,-0.5808 -2.12645,-0.53153 z m 86.25761,0 c 0,0 0,31.55289 0,47.32933 4.37266,-1.61365 8.99461,-2.65132 13.08385,-4.88787 4.21731,-2.30659 7.1937,-6.3653 9.36209,-10.65531 1.27029,1.58781 2.71355,3.02784 4.07672,4.53667 0,0 0,0 0,0 1.7033,1.88532 3.33644,3.84386 4.71763,5.97645 1.48196,2.28818 2.67195,4.78909 3.27543,7.44762 0.66766,2.94123 0.55989,6.04483 -0.24988,8.95015 0,0 0,10e-6 0,10e-6 1.21639,-1.98177 3.07207,-3.4978 5.08884,-4.65523 2.51032,-1.44067 5.18002,-2.58325 7.7314,-3.94987 9.69571,-5.19341 17.74653,-13.01634 24.72362,-21.5192 3.56239,2.45828 6.62649,5.61434 9.06331,9.19144 0,0 10e-6,10e-6 10e-6,10e-6 2.05711,3.01972 3.67608,6.30989 5.38459,9.53965 l 0,-47.05061 c -1.93826,3.31988 -4.39961,6.34179 -7.33556,8.82344 -1.75733,1.48541 -3.80336,2.65134 -5.3373,4.36647 -2.24003,-1.59721 -4.59115,-3.04546 -6.72991,-4.77593 0,0 -1e-5,-1e-5 -1e-5,-1e-5 -0.54361,-0.43983 -1.07543,-0.91137 -1.45805,-1.49665 -0.30606,-0.46818 -0.47983,-1.01685 -0.52411,-1.57443 -0.1441,-1.81468 0.41792,-3.60667 0.74176,-5.39803 0,0 0,-10e-6 1e-5,-2e-5 0.70275,-3.88739 1.17138,-7.81557 1.44187,-11.7567 -3e-5,2e-5 -4e-5,3e-5 -4e-5,3e-5 -0.006,0.004 -0.0113,0.008 -0.0169,0.0123 -0.0159,0.0116 -0.0318,0.0232 -0.0477,0.0348 0,0 0,0 -10e-6,0 -0.0614,0.0448 -0.12264,0.0898 -0.18387,0.13479 0,0 0,0 0,0 -0.23227,0.17076 -0.46382,0.3425 -0.69493,0.51483 -0.83382,0.62177 -1.66183,1.25132 -2.48528,1.88676 -2.59991,2.00628 -5.15617,4.0698 -7.6465,6.21059 -2.7796,2.38945 -5.49776,4.86129 -7.96528,7.57182 0,10e-6 -10e-6,10e-6 -10e-6,2e-5 -1.03387,1.13569 -2.02663,2.31388 -2.88373,3.58827 -0.64044,0.95226 -1.2364,1.96231 -1.50131,3.0789 -0.6974,-2.88441 -2.03973,-5.57434 -3.50471,-8.15505 -1.87612,-3.30501 -4.07148,-6.42624 -6.504,-9.34612 -2.51509,-3.01899 -5.29209,-5.83545 -8.41212,-8.22403 -2.77091,-2.1213 -5.84199,-3.94872 -9.22904,-4.78878 3.24904,4.29902 5.79164,9.29568 6.32712,14.65767 0.30968,3.10089 -0.10179,6.2685 -1.1802,9.19227 -1.36735,3.70716 -3.72827,6.98898 -6.491,9.81387 0.0312,0 0.063,-0.0151 0.0771,-0.0429 1e-5,-10e-6 1e-5,-10e-6 1e-5,-2e-5 0.0192,-0.0378 0.0159,-0.083 0.0102,-0.125 0,-10e-6 0,-10e-6 0,-10e-6 -0.0225,-0.16667 -0.0962,-0.32189 -0.16733,-0.47428 0,0 0,0 0,-10e-6 -0.27678,-0.59286 -0.63457,-1.14417 -0.99494,-1.69026 -1.18089,-1.78945 -2.50747,-3.47998 -3.90463,-5.10619 -1.55614,-1.81124 -3.20607,-3.55535 -5.07404,-5.04292 -1e-5,0 -1e-5,0 -1e-5,-10e-6 -0.76756,-0.61125 -1.57419,-1.18231 -2.45671,-1.6112 -0.66433,-0.32285 -1.38947,-0.5808 -2.12645,-0.53153 z m 86.25761,0 c 0,0 0,31.55289 0,47.32933 4.37266,-1.61365 8.99461,-2.65132 13.08385,-4.88787 4.21731,-2.30659 7.1937,-6.3653 9.36209,-10.65531 1.27029,1.58781 2.71355,3.02784 4.07672,4.53667 0,0 0,0 0,10e-6 1.7033,1.88531 3.33644,3.84385 4.71763,5.97644 1.48196,2.28818 2.67195,4.78909 3.27543,7.44762 0.66766,2.94123 0.55989,6.04483 -0.24988,8.95015 0,0 0,10e-6 0,10e-6 1.21639,-1.98177 3.07207,-3.4978 5.08884,-4.65523 2.51032,-1.44067 5.18002,-2.58325 7.7314,-3.94987 9.69571,-5.19341 17.74653,-13.01634 24.72362,-21.5192 3.56239,2.45828 6.62649,5.61434 9.06331,9.19144 0,0 10e-6,10e-6 10e-6,10e-6 2.05711,3.01972 3.67608,6.30989 5.38459,9.53965 l 0,-47.05061 c -1.93826,3.31988 -4.39961,6.34179 -7.33556,8.82344 -1.75733,1.48541 -3.80336,2.65134 -5.3373,4.36647 -2.24003,-1.59721 -4.59115,-3.04546 -6.72991,-4.77593 0,0 -1e-5,-1e-5 -1e-5,-1e-5 -0.54361,-0.43983 -1.07543,-0.91137 -1.45805,-1.49665 -0.30606,-0.46818 -0.47983,-1.01685 -0.52411,-1.57443 -0.1441,-1.81468 0.41792,-3.60667 0.74176,-5.39803 0.70276,-3.8874 1.17139,-7.81558 1.44188,-11.75672 -0.006,0.004 -0.0114,0.008 -0.017,0.0123 -0.0159,0.0116 -0.0318,0.0232 -0.0477,0.0348 -0.0614,0.0448 -0.12263,0.0898 -0.18386,0.13478 0,0 -10e-6,1e-5 -10e-6,1e-5 -0.23227,0.17076 -0.46382,0.3425 -0.69493,0.51483 -0.83382,0.62177 -1.66183,1.25132 -2.48528,1.88676 -2.59991,2.00628 -5.15617,4.0698 -7.6465,6.21059 -2.7796,2.38945 -5.49776,4.86129 -7.96528,7.57182 0,10e-6 -10e-6,10e-6 -10e-6,2e-5 -1.03387,1.13569 -2.02663,2.31388 -2.88373,3.58827 -0.64044,0.95226 -1.2364,1.96231 -1.50131,3.0789 -0.6974,-2.88441 -2.03973,-5.57434 -3.50471,-8.15505 -1.87612,-3.30501 -4.07148,-6.42624 -6.504,-9.34612 -2.51509,-3.01899 -5.29209,-5.83545 -8.41212,-8.22403 -2.77091,-2.1213 -5.84199,-3.94872 -9.22904,-4.78878 3.24904,4.29902 5.79164,9.29568 6.32712,14.65767 0.30968,3.10089 -0.10179,6.2685 -1.1802,9.19227 -1.36735,3.70716 -3.72827,6.98898 -6.491,9.81387 0.0312,0 0.063,-0.0151 0.0771,-0.0429 10e-6,-10e-6 10e-6,-10e-6 10e-6,-2e-5 0.0192,-0.0378 0.0159,-0.083 0.0102,-0.125 0,-10e-6 0,-10e-6 0,-10e-6 -0.0225,-0.16666 -0.0962,-0.32189 -0.16733,-0.47427 0,0 0,-10e-6 0,-2e-5 -0.27678,-0.59286 -0.63457,-1.14417 -0.99494,-1.69026 -1.18089,-1.78945 -2.50747,-3.47998 -3.90463,-5.10619 -1.55614,-1.81124 -3.20607,-3.55534 -5.07403,-5.04291 -10e-6,-10e-6 -2e-5,-10e-6 -2e-5,-2e-5 -0.76756,-0.61125 -1.57419,-1.18231 -2.45671,-1.6112 -0.66433,-0.32285 -1.38947,-0.5808 -2.12645,-0.53153 z m 86.25761,0 c 0,0 0,31.55289 0,47.32933 4.37266,-1.61365 8.99461,-2.65132 13.08385,-4.88787 4.21731,-2.30659 7.1937,-6.3653 9.36209,-10.65531 1.27029,1.58781 2.71355,3.02784 4.07672,4.53667 0,0 0,0 0,0 1.7033,1.88532 3.33644,3.84386 4.71763,5.97646 1.48196,2.28817 2.67195,4.78908 3.27543,7.44761 0.66766,2.94124 0.55989,6.04483 -0.24988,8.95016 1.21639,-1.98177 3.07207,-3.4978 5.08884,-4.65523 2.51032,-1.44067 5.18002,-2.58325 7.7314,-3.94987 9.69571,-5.19341 17.74653,-13.01634 24.72362,-21.5192 3.56239,2.45828 6.62649,5.61434 9.06331,9.19144 0,0 10e-6,10e-6 10e-6,10e-6 2.05711,3.01972 3.67608,6.30989 5.38459,9.53965 l 0,-47.05061 c -1.93826,3.31988 -4.39961,6.34179 -7.33556,8.82344 -1.75733,1.48541 -3.80336,2.65134 -5.3373,4.36647 -2.24003,-1.59721 -4.59115,-3.04546 -6.72991,-4.77593 0,0 -1e-5,-1e-5 -1e-5,-1e-5 -0.54361,-0.43983 -1.07543,-0.91137 -1.45805,-1.49665 -0.30606,-0.46818 -0.47983,-1.01685 -0.52411,-1.57443 -0.1441,-1.81468 0.41792,-3.60667 0.74176,-5.39803 0.70276,-3.8874 1.17139,-7.81558 1.44188,-11.75672 -0.006,0.004 -0.0114,0.008 -0.017,0.0123 -0.0159,0.0116 -0.0318,0.0232 -0.0477,0.0348 0,0 0,0 -10e-6,0 -0.0614,0.0448 -0.12263,0.0898 -0.18386,0.13478 0,0 -10e-6,1e-5 -10e-6,1e-5 -0.23227,0.17076 -0.46382,0.3425 -0.69493,0.51483 -0.83382,0.62177 -1.66183,1.25132 -2.48528,1.88676 -2.59991,2.00628 -5.15617,4.0698 -7.6465,6.21059 -2.7796,2.38945 -5.49776,4.86129 -7.96528,7.57182 0,10e-6 -10e-6,10e-6 -10e-6,2e-5 -1.03387,1.13569 -2.02663,2.31388 -2.88373,3.58827 0,10e-6 0,10e-6 -10e-6,2e-5 -0.64043,0.95225 -1.23639,1.96229 -1.5013,3.07888 -0.6974,-2.88441 -2.03973,-5.57434 -3.50471,-8.15505 -1.87612,-3.30501 -4.07148,-6.42624 -6.504,-9.34612 -2.51509,-3.01899 -5.29209,-5.83545 -8.41212,-8.22403 -2.77091,-2.1213 -5.84199,-3.94872 -9.22904,-4.78878 3.24904,4.29902 5.79164,9.29568 6.32712,14.65767 0.30968,3.10089 -0.10179,6.2685 -1.1802,9.19227 -1.36735,3.70716 -3.72827,6.98898 -6.491,9.81387 0.0312,0 0.063,-0.0151 0.0771,-0.0429 10e-6,-10e-6 10e-6,-10e-6 10e-6,-2e-5 0.0192,-0.0378 0.0159,-0.083 0.0102,-0.125 0,-10e-6 0,-10e-6 0,-10e-6 0,0 0,0 0,0 -0.0225,-0.16667 -0.0962,-0.3219 -0.16733,-0.47429 -0.27678,-0.59286 -0.63457,-1.14417 -0.99494,-1.69026 -1.18089,-1.78945 -2.50747,-3.47998 -3.90463,-5.10619 -1.55614,-1.81124 -3.20607,-3.55535 -5.07404,-5.04292 -10e-6,0 -10e-6,0 -10e-6,-10e-6 -0.76756,-0.61125 -1.57419,-1.18231 -2.45671,-1.6112 -0.66433,-0.32285 -1.38947,-0.5808 -2.12645,-0.53153 z m 86.25761,0 c 0,0 0,31.55289 0,47.32933 4.37266,-1.61365 8.99461,-2.65132 13.08385,-4.88787 4.21731,-2.30659 7.1937,-6.3653 9.36209,-10.65531 1.27029,1.58781 2.71355,3.02783 4.07671,4.53666 0,0 10e-6,10e-6 10e-6,10e-6 1.7033,1.88532 3.33644,3.84386 4.71763,5.97646 1.48196,2.28817 2.67195,4.78908 3.27543,7.44761 0.66766,2.94123 0.55989,6.04483 -0.24988,8.95015 0,0 0,10e-6 0,10e-6 1.21639,-1.98177 3.07207,-3.4978 5.08884,-4.65523 2.51032,-1.44067 5.18002,-2.58325 7.7314,-3.94987 9.69571,-5.19341 17.74653,-13.01634 24.72362,-21.5192 3.56239,2.45828 6.62649,5.61434 9.06331,9.19144 0,0 10e-6,10e-6 10e-6,10e-6 2.05711,3.01972 3.67608,6.30989 5.38459,9.53965 l 0,-47.05061 c -1.93826,3.31988 -4.39961,6.34179 -7.33556,8.82344 -1.75733,1.48541 -3.80336,2.65134 -5.3373,4.36647 -2.24003,-1.59721 -4.59115,-3.04546 -6.72991,-4.77593 0,0 -1e-5,-1e-5 -1e-5,-1e-5 -0.54361,-0.43983 -1.07543,-0.91137 -1.45805,-1.49665 -0.30606,-0.46818 -0.47983,-1.01685 -0.52411,-1.57443 -0.1441,-1.81468 0.41792,-3.60667 0.74176,-5.39803 0.70276,-3.8874 1.17139,-7.81558 1.44188,-11.75672 -3e-5,2e-5 -4e-5,3e-5 -4e-5,3e-5 -0.006,0.004 -0.0113,0.008 -0.0169,0.0123 -0.0159,0.0116 -0.0318,0.0232 -0.0477,0.0348 0,0 0,0 -10e-6,0 -0.0614,0.0448 -0.12263,0.0898 -0.18386,0.13478 0,0 -10e-6,1e-5 -10e-6,1e-5 -0.23227,0.17076 -0.46382,0.3425 -0.69493,0.51483 -0.83382,0.62177 -1.66183,1.25132 -2.48528,1.88676 -2.59991,2.00628 -5.15616,4.0698 -7.6465,6.21058 0,0 0,10e-6 0,10e-6 -2.7796,2.38945 -5.49776,4.86129 -7.96528,7.57182 -1.03387,1.1357 -2.02664,2.31389 -2.88374,3.58829 -0.64044,0.95226 -1.2364,1.96231 -1.50131,3.0789 -0.6974,-2.88441 -2.03973,-5.57434 -3.50471,-8.15505 -1.87612,-3.30501 -4.07148,-6.42624 -6.504,-9.34612 -2.51509,-3.01899 -5.29209,-5.83545 -8.41212,-8.22403 -2.77091,-2.1213 -5.84199,-3.94872 -9.22904,-4.78878 3.24904,4.29902 5.79164,9.29568 6.32712,14.65767 0.30968,3.10089 -0.10179,6.2685 -1.1802,9.19227 -1.36735,3.70716 -3.72827,6.98898 -6.491,9.81387 0.0312,0 0.063,-0.0151 0.0771,-0.0429 10e-6,-10e-6 10e-6,-10e-6 10e-6,-2e-5 0.0192,-0.0378 0.0159,-0.083 0.0102,-0.12501 0,0 0,0 0,0 -0.0225,-0.16666 -0.0962,-0.32189 -0.16733,-0.47427 0,0 0,-10e-6 0,-2e-5 -0.27678,-0.59286 -0.63457,-1.14417 -0.99494,-1.69026 -1.18089,-1.78945 -2.50747,-3.47998 -3.90463,-5.10619 -1e-5,0 -1e-5,-10e-6 -2e-5,-10e-6 -1.55613,-1.81124 -3.20606,-3.55534 -5.07402,-5.04291 -10e-6,0 -10e-6,0 -10e-6,-10e-6 -0.76756,-0.61125 -1.57419,-1.18231 -2.45671,-1.6112 -0.66433,-0.32285 -1.38947,-0.5808 -2.12645,-0.53153 z m 86.25761,0 c 0,0 0,31.55289 0,47.32933 4.37266,-1.61365 8.99461,-2.65132 13.08385,-4.88787 4.21731,-2.30659 7.1937,-6.3653 9.36209,-10.65531 1.27029,1.58781 2.71355,3.02784 4.07672,4.53667 0,0 0,0 0,0 1.7033,1.88532 3.33644,3.84386 4.71763,5.97646 1.48196,2.28817 2.67195,4.78908 3.27543,7.44761 0.66766,2.94123 0.55989,6.04483 -0.24988,8.95015 0,0 0,10e-6 0,10e-6 1.21639,-1.98177 3.07207,-3.4978 5.08884,-4.65523 2.51032,-1.44067 5.18002,-2.58325 7.7314,-3.94987 9.69571,-5.19341 17.74653,-13.01634 24.72362,-21.5192 3.56239,2.45828 6.62649,5.61434 9.06331,9.19144 0,0 10e-6,10e-6 10e-6,10e-6 2.05711,3.01972 3.67608,6.30989 5.38459,9.53965 l 0,-47.05061 c -1.93826,3.31988 -4.39961,6.34179 -7.33556,8.82344 -1.75733,1.48541 -3.80336,2.65134 -5.3373,4.36647 -2.24003,-1.59721 -4.59115,-3.04546 -6.72991,-4.77593 0,0 -1e-5,-1e-5 -1e-5,-1e-5 -0.54361,-0.43983 -1.07543,-0.91137 -1.45805,-1.49665 -0.30606,-0.46818 -0.47983,-1.01685 -0.52411,-1.57443 -0.1441,-1.81468 0.41792,-3.60667 0.74176,-5.39803 0,0 0,-10e-6 10e-6,-2e-5 0.70275,-3.88739 1.17138,-7.81557 1.44187,-11.7567 -0.006,0.004 -0.0114,0.008 -0.017,0.0123 -0.0159,0.0116 -0.0318,0.0232 -0.0477,0.0348 0,0 0,0 -10e-6,0 -0.0614,0.0448 -0.12264,0.0898 -0.18387,0.13479 0,0 0,0 0,0 -0.23227,0.17076 -0.46382,0.3425 -0.69493,0.51483 -0.83382,0.62177 -1.66183,1.25132 -2.48528,1.88676 -2.59991,2.00628 -5.15616,4.0698 -7.6465,6.21058 0,0 0,10e-6 0,10e-6 -2.7796,2.38945 -5.49776,4.86129 -7.96528,7.57182 0,10e-6 -10e-6,10e-6 -10e-6,2e-5 -1.03387,1.13569 -2.02663,2.31388 -2.88373,3.58827 -0.64044,0.95226 -1.2364,1.96231 -1.50131,3.0789 -0.6974,-2.88441 -2.03973,-5.57434 -3.50471,-8.15505 -1.87612,-3.30501 -4.07148,-6.42624 -6.504,-9.34612 -2.51509,-3.01899 -5.29209,-5.83545 -8.41212,-8.22403 -2.77091,-2.1213 -5.84199,-3.94872 -9.22904,-4.78878 3.24904,4.29902 5.79164,9.29568 6.32712,14.65767 0.30968,3.10089 -0.10179,6.2685 -1.1802,9.19227 -1.36735,3.70716 -3.72827,6.98898 -6.491,9.81387 0.0312,0 0.063,-0.0151 0.0771,-0.0429 10e-6,-10e-6 10e-6,-10e-6 10e-6,-2e-5 0.0192,-0.0378 0.0159,-0.083 0.0102,-0.125 0,-10e-6 0,-10e-6 0,-10e-6 -0.0225,-0.16667 -0.0962,-0.32189 -0.16733,-0.47428 0,0 0,0 0,-10e-6 -0.27678,-0.59286 -0.63457,-1.14417 -0.99494,-1.69026 -1.18089,-1.78945 -2.50747,-3.47998 -3.90463,-5.10619 -1e-5,0 -1e-5,-10e-6 -2e-5,-10e-6 -1.55613,-1.81124 -3.20606,-3.55534 -5.07402,-5.04291 -10e-6,0 -10e-6,0 -10e-6,-10e-6 -0.76756,-0.61125 -1.57419,-1.18231 -2.45671,-1.6112 -0.66433,-0.32285 -1.38947,-0.5808 -2.12645,-0.53153 z"
       id="path3838"
       inkscape:connector-curvature="0"
       transform="translate(0,352.36218)"
       inkscape:path-effect="#path-effect4020;#path-effect4040"
       inkscape:original-d="m -131.31983,619.1878 1062.68048,0" />
    <path
       style="fill:#6ebe28;fill-opacity:1;stroke:none"
       d="m 0.12263655,923.20942 c 0,0.63477 0,26.97773 0,26.97773 10.87835045,-2.28827 16.52993045,-2.18812 22.44594045,-8.85962 4.08253,2.90871 15.42911,7.95816 11.8199,15.33921 5.17155,-4.80259 16.50114,-2.55354 37.54386,-17.17085 8.11156,3.19057 11.24129,7.2215 14.44791,10.67672 l 0,-26.81884 c -4.98329,4.86521 -10.35393,6.04033 -12.67286,7.51825 -13.03784,-5.29893 -8.01822,-1.87822 -6.52844,-14.25101 0,0 -21.69749,8.97701 -23.42561,13.12888 -2.18843,-5.15923 -15.28485,-15.64489 -27.64987,-17.39297 5.66423,4.27199 11.65612,11.61155 -1.34408,19.18837 1.19117,0 -9.5910405,-8.52816 -14.63675045,-8.33587 z m 67.55761045,0 c 0,0.63477 0,26.97773 0,26.97773 10.87835,-2.28827 16.52993,-2.18812 22.44594,-8.85962 4.08253,2.90871 15.429113,7.95816 11.819903,15.33921 5.17155,-4.80259 16.50114,-2.55354 37.54386,-17.17085 8.11156,3.19057 11.24129,7.2215 14.44791,10.67672 l 0,-26.81884 c -4.98329,4.86521 -10.35393,6.04033 -12.67286,7.51825 -13.03784,-5.29893 -8.01822,-1.87822 -6.52844,-14.25101 0,0 -21.69749,8.97701 -23.42561,13.12888 -2.18843,-5.15923 -15.284853,-15.64489 -27.649873,-17.39297 5.66423,4.27199 11.65612,11.61155 -1.34408,19.18837 1.19117,0 -9.59104,-8.52816 -14.63675,-8.33587 z m 67.557613,0 c 0,0.63477 0,26.97773 0,26.97773 10.87835,-2.28827 16.52993,-2.18812 22.44594,-8.85962 4.08253,2.90871 15.42911,7.95816 11.8199,15.33921 5.17155,-4.80259 16.50114,-2.55354 37.54386,-17.17085 8.11156,3.19057 11.24129,7.2215 14.44791,10.67672 l 0,-26.81884 c -4.98329,4.86521 -10.35393,6.04033 -12.67286,7.51825 -13.03784,-5.29893 -8.01822,-1.87822 -6.52844,-14.25101 0,0 -21.69749,8.97701 -23.42561,13.12888 -2.18843,-5.15923 -15.28485,-15.64489 -27.64987,-17.39297 5.66423,4.27199 11.65612,11.61155 -1.34408,19.18837 1.19117,0 -9.59104,-8.52816 -14.63675,-8.33587 z m 67.55761,0 c 0,0.63477 0,26.97773 0,26.97773 10.87835,-2.28827 16.52993,-2.18812 22.44594,-8.85962 4.08253,2.90871 15.42911,7.95816 11.8199,15.33921 5.17155,-4.80259 16.50114,-2.55354 37.54386,-17.17085 8.11156,3.19057 11.24129,7.2215 14.44791,10.67672 l 0,-26.81884 c -4.98329,4.86521 -10.35393,6.04033 -12.67286,7.51825 -13.03784,-5.29893 -8.01822,-1.87822 -6.52844,-14.25101 0,0 -21.69749,8.97701 -23.42561,13.12888 -2.18843,-5.15923 -15.28485,-15.64489 -27.64987,-17.39297 5.66423,4.27199 11.65612,11.61155 -1.34408,19.18837 1.19117,0 -9.59104,-8.52816 -14.63675,-8.33587 z m 67.55761,0 c 0,0.63477 0,26.97773 0,26.97773 10.87835,-2.28827 16.52993,-2.18812 22.44594,-8.85962 4.08253,2.90871 15.42911,7.95816 11.8199,15.33921 5.17155,-4.80259 16.50114,-2.55354 37.54386,-17.17085 8.11156,3.19057 11.24129,7.2215 14.44791,10.67672 l 0,-26.81884 c -4.98329,4.86521 -10.35393,6.04033 -12.67286,7.51825 -13.03784,-5.29893 -8.01822,-1.87822 -6.52844,-14.25101 0,0 -21.69749,8.97701 -23.42561,13.12888 -2.18843,-5.15923 -15.28485,-15.64489 -27.64987,-17.39297 5.66423,4.27199 11.65612,11.61155 -1.34408,19.18837 1.19117,0 -9.59104,-8.52816 -14.63675,-8.33587 z m 67.55761,0 c 0,0.63477 0,26.97773 0,26.97773 10.87835,-2.28827 16.52993,-2.18812 22.44594,-8.85962 4.08253,2.90871 15.42911,7.95816 11.8199,15.33921 5.17155,-4.80259 16.50114,-2.55354 37.54386,-17.17085 8.11156,3.19057 11.24129,7.2215 14.44791,10.67672 l 0,-26.81884 c -4.98329,4.86521 -10.35393,6.04033 -12.67286,7.51825 -13.03784,-5.29893 -8.01822,-1.87822 -6.52844,-14.25101 0,0 -21.69749,8.97701 -23.42561,13.12888 -2.18843,-5.15923 -15.28485,-15.64489 -27.64987,-17.39297 5.66423,4.27199 11.65612,11.61155 -1.34408,19.18837 1.19117,0 -9.59104,-8.52816 -14.63675,-8.33587 z m 67.55761,0 c 0,0.63477 0,26.97773 0,26.97773 10.87835,-2.28827 16.52993,-2.18812 22.44594,-8.85962 4.08253,2.90871 15.42911,7.95816 11.8199,15.33921 5.17155,-4.80259 16.50114,-2.55354 37.54386,-17.17085 8.11156,3.19057 11.24129,7.2215 14.44791,10.67672 l 0,-26.81884 c -4.98329,4.86521 -10.35393,6.04033 -12.67286,7.51825 -13.03784,-5.29893 -8.01822,-1.87822 -6.52844,-14.25101 0,0 -21.69749,8.97701 -23.42561,13.12888 -2.18843,-5.15923 -15.28485,-15.64489 -27.64987,-17.39297 5.66423,4.27199 11.65612,11.61155 -1.34408,19.18837 1.19117,0 -9.59104,-8.52816 -14.63675,-8.33587 z m 67.55761,0 c 0,0.63477 0,26.97773 0,26.97773 10.87835,-2.28827 16.52993,-2.18812 22.44594,-8.85962 4.08253,2.90871 15.42911,7.95816 11.8199,15.33921 5.17155,-4.80259 16.50114,-2.55354 37.54386,-17.17085 8.11156,3.19057 11.24129,7.2215 14.44791,10.67672 l 0,-26.81884 c -4.98329,4.86521 -10.35393,6.04033 -12.67286,7.51825 -13.03784,-5.29893 -8.01822,-1.87822 -6.52844,-14.25101 0,0 -21.69749,8.97701 -23.42561,13.12888 -2.18843,-5.15923 -15.28485,-15.64489 -27.64987,-17.39297 5.66423,4.27199 11.65612,11.61155 -1.34408,19.18837 1.19117,0 -9.59104,-8.52816 -14.63675,-8.33587 z m 67.55761,0 c 0,0.63477 0,26.97773 0,26.97773 10.87835,-2.28827 16.52993,-2.18812 22.44594,-8.85962 4.08253,2.90871 15.42911,7.95816 11.8199,15.33921 5.17155,-4.80259 16.50114,-2.55354 37.54386,-17.17085 8.11156,3.19057 11.24129,7.2215 14.44791,10.67672 l 0,-26.81884 c -4.98329,4.86521 -10.35393,6.04033 -12.67286,7.51825 -13.03784,-5.29893 -8.01822,-1.87822 -6.52844,-14.25101 0,0 -21.69749,8.97701 -23.42561,13.12888 -2.18843,-5.15923 -15.28485,-15.64489 -27.64987,-17.39297 5.66423,4.27199 11.65612,11.61155 -1.34408,19.18837 1.19117,0 -9.59104,-8.52816 -14.63675,-8.33587 z m 67.55761,0 c 0,0.63477 0,26.97773 0,26.97773 10.87835,-2.28827 16.52993,-2.18812 22.44594,-8.85962 4.08253,2.90871 15.42911,7.95816 11.8199,15.33921 5.17155,-4.80259 16.50114,-2.55354 37.54386,-17.17085 8.11156,3.19057 11.24129,7.2215 14.44791,10.67672 l 0,-26.81884 c -4.98329,4.86521 -10.35393,6.04033 -12.67286,7.51825 -13.03784,-5.29893 -8.01822,-1.87822 -6.52844,-14.25101 0,0 -21.69749,8.97701 -23.42561,13.12888 -2.18843,-5.15923 -15.28485,-15.64489 -27.64987,-17.39297 5.66423,4.27199 11.65612,11.61155 -1.34408,19.18837 1.19117,0 -9.59104,-8.52816 -14.63675,-8.33587 z m 67.55761,0 c 0,0.63477 0,26.97773 0,26.97773 10.87835,-2.28827 16.52993,-2.18812 22.44594,-8.85962 4.08253,2.90871 15.42911,7.95816 11.8199,15.33921 5.17155,-4.80259 16.50114,-2.55354 37.54386,-17.17085 8.11156,3.19057 11.24129,7.2215 14.44791,10.67672 l 0,-26.81884 c -4.98329,4.86521 -10.35393,6.04033 -12.67286,7.51825 -13.03784,-5.29893 -8.01822,-1.87822 -6.52844,-14.25101 0,0 -21.69749,8.97701 -23.42561,13.12888 -2.18843,-5.15923 -15.28485,-15.64489 -27.64987,-17.39297 5.66423,4.27199 11.65612,11.61155 -1.34408,19.18837 1.19117,0 -9.59104,-8.52816 -14.63675,-8.33587 z m 67.55761,0 c 0,0.63477 0,26.97773 0,26.97773 10.87835,-2.28827 16.52993,-2.18812 22.44594,-8.85962 4.08253,2.90871 15.42911,7.95816 11.8199,15.33921 5.17155,-4.80259 16.50114,-2.55354 37.54386,-17.17085 8.11156,3.19057 11.24129,7.2215 14.44791,10.67672 l 0,-26.81884 c -4.98329,4.86521 -10.35393,6.04033 -12.67286,7.51825 -13.03784,-5.29893 -8.01822,-1.87822 -6.52844,-14.25101 0,0 -21.69749,8.97701 -23.42561,13.12888 -2.18843,-5.15923 -15.28485,-15.64489 -27.64987,-17.39297 5.66423,4.27199 11.65612,11.61155 -1.34408,19.18837 1.19117,0 -9.59104,-8.52816 -14.63675,-8.33587 z m 67.55761,0 c 0,0.63477 0,26.97773 0,26.97773 10.87835,-2.28827 16.52993,-2.18812 22.44594,-8.85962 4.08253,2.90871 15.42911,7.95816 11.8199,15.33921 5.17155,-4.80259 16.50114,-2.55354 37.54386,-17.17085 8.11156,3.19057 11.24129,7.2215 14.44791,10.67672 l 0,-26.81884 c -4.98329,4.86521 -10.35393,6.04033 -12.67286,7.51825 -13.03784,-5.29893 -8.01822,-1.87822 -6.52844,-14.25101 0,0 -21.69749,8.97701 -23.42561,13.12888 -2.18843,-5.15923 -15.28485,-15.64489 -27.64987,-17.39297 5.66423,4.27199 11.65612,11.61155 -1.34408,19.18837 1.19117,0 -9.59104,-8.52816 -14.63675,-8.33587 z m 67.55761,0 c 0,0.63477 0,26.97773 0,26.97773 10.87835,-2.28827 16.52993,-2.18812 22.44594,-8.85962 4.08253,2.90871 15.42911,7.95816 11.8199,15.33921 5.17155,-4.80259 16.50114,-2.55354 37.54386,-17.17085 8.11156,3.19057 11.24129,7.2215 14.44791,10.67672 l 0,-26.81884 c -4.98329,4.86521 -10.35393,6.04033 -12.67286,7.51825 -13.03784,-5.29893 -8.01822,-1.87822 -6.52844,-14.25101 0,0 -21.69749,8.97701 -23.42561,13.12888 -2.18843,-5.15923 -15.28485,-15.64489 -27.64987,-17.39297 5.66423,4.27199 11.65612,11.61155 -1.34408,19.18837 1.19117,0 -9.59104,-8.52816 -14.63675,-8.33587 z m 67.55761,0 c 0,0.63477 0,26.97773 0,26.97773 10.87835,-2.28827 16.52993,-2.18812 22.44594,-8.85962 4.08253,2.90871 15.42911,7.95816 11.8199,15.33921 5.17155,-4.80259 16.50114,-2.55354 37.54388,-17.17085 8.1115,3.19057 11.2413,7.2215 14.4479,10.67672 l 0,-26.81884 c -4.9833,4.86521 -10.3539,6.04033 -12.6729,7.51825 -13.0378,-5.29893 -8.0182,-1.87822 -6.5284,-14.25101 0,0 -21.6975,8.97701 -23.42562,13.12888 -2.18843,-5.15923 -15.28485,-15.64489 -27.64987,-17.39297 5.66423,4.27199 11.65612,11.61155 -1.34408,19.18837 1.19117,0 -9.59104,-8.52816 -14.63675,-8.33587 z m 67.55762,0 c 0,0.63477 0,26.97773 0,26.97773 10.8783,-2.28827 16.5299,-2.18812 22.4459,-8.85962 4.0826,2.90871 15.4291,7.95816 11.8199,15.33921 5.1716,-4.80259 16.5012,-2.55354 37.5439,-17.17085 8.1115,3.19057 11.2413,7.2215 14.4479,10.67672 l 0,-26.81884 c -4.9833,4.86521 -10.3539,6.04033 -12.6729,7.51825 -13.0378,-5.29893 -8.0182,-1.87822 -6.5284,-14.25101 0,0 -21.6975,8.97701 -23.4256,13.12888 -2.1884,-5.15923 -15.2849,-15.64489 -27.6499,-17.39297 5.6642,4.27199 11.6561,11.61155 -1.3441,19.18837 1.1912,0 -9.591,-8.52816 -14.6367,-8.33587 z m 67.5576,0 c 0,0.63477 0,26.97773 0,26.97773 10.8783,-2.28827 16.5299,-2.18812 22.4459,-8.85962 4.0826,2.90871 15.4291,7.95816 11.8199,15.33921 5.1716,-4.80259 16.5012,-2.55354 37.5439,-17.17085 8.1116,3.19057 11.2413,7.2215 14.4479,10.67672 l 0,-26.81884 c -4.9833,4.86521 -10.3539,6.04033 -12.6729,7.51825 -13.0378,-5.29893 -8.0182,-1.87822 -6.5284,-14.25101 0,0 -21.6975,8.97701 -23.4256,13.12888 -2.1884,-5.15923 -15.2849,-15.64489 -27.6499,-17.39297 5.6643,4.27199 11.6561,11.61155 -1.3441,19.18837 1.1912,0 -9.591,-8.52816 -14.6367,-8.33587 z m 67.5576,0 c 0,0.63477 0,26.97773 0,26.97773 10.8784,-2.28827 16.5299,-2.18812 22.4459,-8.85962 4.0826,2.90871 15.4292,7.95816 11.8199,15.33921 5.1716,-4.80259 16.5012,-2.55354 37.5439,-17.17085 8.1116,3.19057 11.2413,7.2215 14.4479,10.67672 l 0,-26.81884 c -4.9833,4.86521 -10.3539,6.04033 -12.6728,7.51825 -13.0379,-5.29893 -8.0183,-1.87822 -6.5285,-14.25101 0,0 -21.6975,8.97701 -23.4256,13.12888 -2.1884,-5.15923 -15.2848,-15.64489 -27.6499,-17.39297 5.6643,4.27199 11.6562,11.61155 -1.344,19.18837 1.1911,0 -9.5911,-8.52816 -14.6368,-8.33587 z m 67.5576,0 c 0,0.63477 0,26.97773 0,26.97773 10.8784,-2.28827 16.5299,-2.18812 22.446,-8.85962 4.0825,2.90871 15.4291,7.95816 11.8199,15.33921 5.1715,-4.80259 16.5011,-2.55354 37.5438,-17.17085 8.1116,3.19057 11.2413,7.2215 14.4479,10.67672 l 0,-26.81884 c -4.9833,4.86521 -10.3539,6.04033 -12.6728,7.51825 -13.0379,-5.29893 -8.0183,-1.87822 -6.5285,-14.25101 0,0 -21.6975,8.97701 -23.4256,13.12888 -2.1884,-5.15923 -15.2848,-15.64489 -27.6499,-17.39297 5.6643,4.27199 11.6562,11.61155 -1.344,19.18837 1.1911,0 -9.5911,-8.52816 -14.6368,-8.33587 z"
       id="path4105"
       inkscape:connector-curvature="0"
       inkscape:path-effect="#path-effect5585"
       inkscape:original-d="m -0.07736345,934.51183 1358.76556345,0"
       inkscape:export-filename="C:\Users\nakayama.akito\workspace_jv11\2014HEW\images\outside_01.png"
       inkscape:export-xdpi="90"
       inkscape:export-ydpi="90" />
  </g>
</svg>
