<?xml version="1.0" encoding="UTF-8" standalone="no"?>
<!-- Created with Inkscape (http://www.inkscape.org/) -->

<svg
   xmlns:dc="http://purl.org/dc/elements/1.1/"
   xmlns:cc="http://creativecommons.org/ns#"
   xmlns:rdf="http://www.w3.org/1999/02/22-rdf-syntax-ns#"
   xmlns:svg="http://www.w3.org/2000/svg"
   xmlns="http://www.w3.org/2000/svg"
   xmlns:sodipodi="http://sodipodi.sourceforge.net/DTD/sodipodi-0.dtd"
   xmlns:inkscape="http://www.inkscape.org/namespaces/inkscape"
   width="800"
   height="700"
   id="svg2"
   version="1.1"
   inkscape:version="0.48.5 r10040"
   sodipodi:docname="outside.svg"
   inkscape:export-filename="C:\Users\nakayama.akito\workspace_jv11\2014HEW\images\outside.png"
   inkscape:export-xdpi="90"
   inkscape:export-ydpi="90">
  <defs
     id="defs4">
    <inkscape:path-effect
       effect="skeletal"
       id="path-effect5585"
       is_visible="true"
       pattern="m -434.72632,929.60002 c 0,1.11363 0,47.32935 0,47.32935 10.87835,-4.0145 16.52993,-3.8388 22.44594,-15.5432 4.08253,5.103 15.42911,13.9617 11.8199,26.9109 5.17155,-8.4256 16.50114,-4.4799 37.54386,-30.1243 8.11156,5.5975 11.24129,12.6693 14.44791,18.7311 l 0,-47.05061 c -4.98329,8.53547 -10.35393,10.59708 -12.67286,13.18991 -13.03784,-9.29636 -8.01822,-3.29511 -6.52844,-25.00177 0,0 -21.69749,15.74915 -23.42561,23.03313 -2.18843,-9.05129 -15.28485,-27.44718 -27.64987,-30.51398 5.66423,7.49472 11.65612,20.37114 -1.34408,33.66381 1.19117,0 -9.59104,-14.96169 -14.63675,-14.62434 z"
       copytype="repeated"
       prop_scale="0.74"
       scale_y_rel="false"
       spacing="-18.7"
       normal_offset="0"
       tang_offset="0.2"
       prop_units="false"
       vertical_pattern="false"
       fuse_tolerance="0" />
    <inkscape:path-effect
       effect="skeletal"
       id="path-effect4040"
       is_visible="true"
       pattern="M 0,0 1,0"
       copytype="single_stretched"
       prop_scale="1"
       scale_y_rel="false"
       spacing="0"
       normal_offset="0"
       tang_offset="0"
       prop_units="false"
       vertical_pattern="false"
       fuse_tolerance="0" />
    <inkscape:path-effect
       effect="skeletal"
       id="path-effect4020"
       is_visible="true"
       pattern="m -427.89416,979.44075 c 0,1.11363 0,47.32935 0,47.32935 10.87835,-4.0145 16.52993,-3.8388 22.44594,-15.5432 4.08253,5.103 15.42911,13.9617 11.8199,26.9109 5.17155,-8.4256 16.50114,-4.4799 37.54386,-30.1243 8.11156,5.5975 11.24129,12.6693 14.44791,18.7311 l 0,-47.05061 c -4.98329,8.53547 -10.35393,10.59708 -12.67286,13.18991 -13.03784,-9.29636 -8.01822,-3.29511 -6.52844,-25.00177 0,0 -21.69749,15.74915 -23.42561,23.03313 -2.18843,-9.05129 -15.28485,-27.44718 -27.64987,-30.51398 5.66423,7.49472 11.65612,20.37114 -1.34408,33.66381 1.19117,0 -9.59104,-14.96169 -14.63675,-14.62434 z"
       copytype="repeated"
       prop_scale="1"
       scale_y_rel="false"
       spacing="0"
       normal_offset="0"
       tang_offset="0"
       prop_units="false"
       vertical_pattern="false"
       fuse_tolerance="-0.1" />
  </defs>
  <sodipodi:namedview
     id="base"
     pagecolor="#ffffff"
     bordercolor="#666666"
     borderopacity="1.0"
     inkscape:pageopacity="0.0"
     inkscape:pageshadow="2"
     inkscape:zoom="0.70710678"
     inkscape:cx="429.27164"
     inkscape:cy="354.48666"
     inkscape:document-units="px"
     inkscape:current-layer="layer1"
     showgrid="false"
     width="800px"
     showborder="true"
     inkscape:window-width="1301"
     inkscape:window-height="745"
     inkscape:window-x="57"
     inkscape:window-y="-8"
     inkscape:window-maximized="1"
     showguides="true"
     inkscape:guide-bbox="true" />
  <metadata
     id="metadata7">
    <rdf:RDF>
      <cc:Work
         rdf:about="">
        <dc:format>image/svg+xml</dc:format>
        <dc:type
           rdf:resource="http://purl.org/dc/dcmitype/StillImage" />
        <dc:title></dc:title>
      </cc:Work>
    </rdf:RDF>
  </metadata>
  <g
     inkscape:label="レイヤー 1"
     inkscape:groupmode="layer"
     id="layer1"
     transform="translate(0,-352.36218)">
    <rect
       style="fill:#cfe8f3;fill-opacity:1;stroke:none"
       id="rect3941"
       width="959.12561"
       height="722.25549"
       x="-100.26097"
       y="340.50961" />
    <path
       style="fill:#f7f7f7;fill-opacity:1;stroke:none"
       d="m 595.03415,714.84014 181.58855,0 c -7.31066,-41.24528 -47.82289,-52.61597 -61.37725,-19.2607 0,0 -52.95605,-122.83533 -120.2113,19.2607 z"
       id="path3809"
       inkscape:connector-curvature="0"
       sodipodi:nodetypes="cccc" />
    <path
       style="fill:#d40000;stroke:none"
       d="m -99.330357,894.23718 954.285717,0 0,0 0,0"
       id="path2985"
       inkscape:connector-curvature="0" />
    <g
       id="g3797"
       style="fill:#daac48;fill-opacity:1"
       transform="matrix(0.89466511,0,0,0.89466511,73.306713,59.278886)">
      <rect
         y="660.42297"
         x="58.588844"
         height="141.42136"
         width="149.50258"
         id="rect3901-1"
         style="fill:#daac48;fill-opacity:1;stroke:none" />
      <rect
         transform="translate(0,352.36218)"
         y="478.77658"
         x="59.598999"
         height="141.42136"
         width="149.50258"
         id="rect3901"
         style="fill:#daac48;fill-opacity:1;stroke:none" />
    </g>
    <g
       id="g3801"
       style="fill:#fff4b8;fill-opacity:1"
       transform="matrix(1.0679867,0,0,0.89466511,44.477834,59.278886)">
      <rect
         transform="translate(0,352.36218)"
         y="531.3045"
         x="136.37059"
         height="88.893425"
         width="72.73098"
         id="rect3921"
         style="fill:#fff4b8;fill-opacity:1;stroke:none" />
      <rect
         y="712.95093"
         x="135.36044"
         height="88.893425"
         width="72.73098"
         id="rect3921-5"
         style="fill:#fff4b8;fill-opacity:1;stroke:none" />
    </g>
    <path
       style="fill:#f7f7f7;fill-opacity:1;stroke:none"
       d="m 26.05124,521.75786 150.89006,0 c -6.07475,-37.18042 -39.73818,-47.43049 -51.00111,-17.36248 0,0 -44.00355,-110.72949 -99.88895,17.36248 z"
       id="path3809-1"
       inkscape:connector-curvature="0"
       sodipodi:nodetypes="cccc" />
    <g
       id="g3780"
       style="fill:#fff4b8;fill-opacity:1"
       transform="matrix(0.89466511,0,0,0.89466511,71.517383,61.068216)">
      <path
         inkscape:connector-curvature="0"
         id="path2995"
         d="m 208.91472,802.36218 456.7996,0 0,170 -456.7996,0 z"
         style="fill:#fff4b8;fill-opacity:1;stroke:none" />
      <path
         inkscape:connector-curvature="0"
         id="path2995-4"
         d="m 208.91631,632.29049 456.7996,0 0,170 -456.7996,0 z"
         style="fill:#fff4b8;fill-opacity:1;stroke:none" />
      <path
         inkscape:connector-curvature="0"
         id="path2995-45"
         d="m 208.7632,462.17875 456.79961,0 0,170 -456.79961,0 z"
         style="fill:#fff4b8;fill-opacity:1;stroke:none" />
    </g>
    <rect
       style="fill:#cd9878;fill-opacity:1;stroke:none"
       id="rect3879"
       width="68.377975"
       height="373.20316"
       x="124.55823"
       y="556.52545" />
    <g
       id="g3789"
       style="fill:#b8baff;fill-opacity:1"
       transform="matrix(0.89466511,0,0,0.89466511,71.517383,59.278886)">
      <rect
         y="853.07648"
         x="313.3053"
         height="120"
         width="69.285713"
         id="rect2997"
         style="fill:#b8baff;fill-opacity:1;stroke:none" />
      <rect
         y="853.07648"
         x="498.93729"
         height="120"
         width="69.285713"
         id="rect2997-7"
         style="fill:#b8baff;fill-opacity:1;stroke:none" />
      <rect
         y="512.89307"
         x="313.15057"
         height="120"
         width="69.285713"
         id="rect2997-5"
         style="fill:#b8baff;fill-opacity:1;stroke:none" />
      <rect
         y="512.89307"
         x="498.78259"
         height="120"
         width="69.285713"
         id="rect2997-7-1"
         style="fill:#b8baff;fill-opacity:1;stroke:none" />
      <rect
         y="683.00476"
         x="313.30692"
         height="120"
         width="69.285713"
         id="rect2997-0"
         style="fill:#b8baff;fill-opacity:1;stroke:none" />
      <rect
         y="683.00476"
         x="498.93893"
         height="120"
         width="69.285713"
         id="rect2997-7-9"
         style="fill:#b8baff;fill-opacity:1;stroke:none" />
    </g>
    <g
       id="g3785"
       style="fill:#fbc07c;fill-opacity:1;stroke:none"
       transform="matrix(0.89466511,0,0,0.89466511,71.517383,61.068216)">
      <rect
         y="553.68054"
         x="59.093922"
         height="78.458168"
         width="606.59662"
         id="rect3083"
         style="fill:#fbc07c;fill-opacity:1;stroke:none" />
      <rect
         y="724.62317"
         x="59.346455"
         height="77.726288"
         width="606.59662"
         id="rect3083-7"
         style="fill:#fbc07c;fill-opacity:1;stroke:none" />
    </g>
    <path
       style="fill:none;stroke:none"
       d="m 193.52339,913.56073 65.06988,0"
       id="path3953"
       inkscape:connector-curvature="0" />
    <path
       style="fill:none;stroke:none"
       d="m 193.97527,896.38952 64.16612,0"
       id="path3955"
       inkscape:connector-curvature="0" />
    <path
       style="fill:none;stroke:none"
       d="m 193.07152,881.47768 66.4255,0"
       id="path3957"
       inkscape:connector-curvature="0" />
    <path
       style="fill:none;stroke:none"
       d="m 193.97527,867.46957 64.16612,0"
       id="path3959"
       inkscape:connector-curvature="0" />
    <rect
       style="fill:#b4916e;fill-opacity:1;stroke:none"
       id="rect3807"
       width="1141.4286"
       height="175.71428"
       x="-203.67351"
       y="930.99225" />
    <path
       style="fill:none;stroke:none;stroke-width:1px;stroke-linecap:butt;stroke-linejoin:miter;stroke-opacity:1;marker-start:none"
       d="m -131.31983,599.35901 c 0,0 0,31.55289 0,47.32933 4.37266,-1.61365 8.99461,-2.65132 13.08385,-4.88787 4.21731,-2.30659 7.1937,-6.3653 9.36209,-10.65531 1.27029,1.58781 2.71355,3.02783 4.07671,4.53666 0,0 1e-5,10e-6 1e-5,10e-6 1.7033,1.88532 3.33644,3.84386 4.71763,5.97646 1.48196,2.28817 2.671947,4.78908 3.275432,7.44761 0.667659,2.94123 0.559893,6.04482 -0.249877,8.95014 -10e-7,10e-6 -3e-6,10e-6 -5e-6,2e-5 1.216391,-1.98177 3.07207,-3.4978 5.088843,-4.65523 2.510313,-1.44067 5.180016,-2.58325 7.731398,-3.94987 9.695708,-5.19341 17.746532,-13.01634 24.723619,-21.5192 3.562386,2.45828 6.62649,5.61434 9.063308,9.19144 3e-6,0 7e-6,10e-6 1.1e-5,10e-6 2.057108,3.01972 3.676086,6.30989 5.384591,9.53965 l 0,-47.05061 c -1.938258,3.31988 -4.399609,6.34179 -7.335565,8.82344 -1.757329,1.48541 -3.803351,2.65134 -5.337295,4.36647 -2.240032,-1.59721 -4.591146,-3.04546 -6.729908,-4.77593 -0.543609,-0.43983 -1.075442,-0.91137 -1.458064,-1.49666 -0.306059,-0.46818 -0.479828,-1.01685 -0.524106,-1.57443 -0.144102,-1.81468 0.417923,-3.60667 0.74176,-5.39803 10e-7,0 2e-6,-10e-6 3e-6,-2e-5 0.702753,-3.88739 1.171386,-7.81557 1.441875,-11.7567 l -11.075285,8.79412 c -2.779597,2.38944 -5.497747,4.86128 -7.965264,7.57181 -3e-6,10e-6 -5e-6,10e-6 -7e-6,10e-6 -1.033877,1.1357 -2.026644,2.31389 -2.883741,3.58829 -0.640439,0.95226 -1.236398,1.9623 -1.501311,3.07889 0,0 -10e-7,10e-6 -2e-6,10e-6 -0.697396,-2.88441 -2.039735,-5.57434 -3.504705,-8.15505 -1.876126,-3.30501 -4.071483,-6.42624 -6.504009,-9.34612 -2.515086,-3.01899 -5.292086,-5.83545 -8.412116,-8.22403 -2.77091,-2.1213 -5.84199,-3.94872 -9.22904,-4.78878 3.24904,4.29902 5.79164,9.29568 6.32712,14.65767 0.30968,3.10089 -0.10179,6.2685 -1.1802,9.19227 -1.36735,3.70716 -3.72827,6.98898 -6.491,9.81387 0.0312,0 0.063,-0.0151 0.0771,-0.0429 0.0192,-0.0378 0.0159,-0.083 0.0102,-0.12502 0,-10e-6 0,-10e-6 0,-10e-6 -0.0225,-0.16667 -0.0962,-0.32189 -0.16733,-0.47428 0,0 0,0 0,-10e-6 -0.27678,-0.59286 -0.63457,-1.14417 -0.99494,-1.69026 -1.18089,-1.78945 -2.50747,-3.47998 -3.90463,-5.10619 -1.55615,-1.81124 -3.20608,-3.55535 -5.07405,-5.04293 -0.76756,-0.61125 -1.57419,-1.18231 -2.45671,-1.6112 -0.66433,-0.32285 -1.38947,-0.5808 -2.12645,-0.53153 z m 86.25761,0 c 0,0 0,31.55289 0,47.32933 4.372656,-1.61365 8.994606,-2.65132 13.083848,-4.88787 4.217311,-2.30659 7.1937,-6.3653 9.362092,-10.65531 1.270288,1.58781 2.713545,3.02783 4.076708,4.53666 5e-6,0 9e-6,10e-6 1.4e-5,10e-6 1.7033,1.88532 3.336441,3.84386 4.71763,5.97645 1.481958,2.28818 2.671945,4.78909 3.27543,7.44762 0.6676597,2.94123 0.5598926,6.04483 -0.249879,8.95015 -1e-6,0 -2e-6,10e-6 -3e-6,10e-6 1.2163911,-1.98177 3.0720697,-3.4978 5.0888433,-4.65523 2.5103131,-1.44067 5.18001537,-2.58325 7.731398,-3.94987 9.6957077,-5.19341 17.7465317,-13.01634 24.7236187,-21.5192 3.562386,2.45828 6.62649,5.61434 9.063307,9.19144 4e-6,0 8e-6,10e-6 1.2e-5,10e-6 2.057108,3.01972 3.676086,6.30989 5.384591,9.53965 l 0,-47.05061 c -1.938258,3.31988 -4.399609,6.34179 -7.335565,8.82344 -1.757329,1.48541 -3.803351,2.65134 -5.337295,4.36647 -2.240032,-1.59721 -4.591146,-3.04546 -6.729908,-4.77593 -0.543609,-0.43983 -1.075442,-0.91137 -1.458064,-1.49666 -0.306059,-0.46818 -0.479828,-1.01685 -0.524106,-1.57443 -0.144102,-1.81468 0.417923,-3.60667 0.74176,-5.39803 10e-7,0 2e-6,-10e-6 3e-6,-2e-5 0.702753,-3.88739 1.171386,-7.81557 1.441875,-11.7567 l -11.075285,8.79412 c -2.7795948,2.38944 -5.4977415,4.86128 -7.9652574,7.57181 -4.6e-6,0 -9.2e-6,10e-6 -1.38e-5,10e-6 -1.0338767,1.1357 -2.02664362,2.31389 -2.88374056,3.58829 -3.8e-6,10e-6 -7.61e-6,10e-6 -1.141e-5,2e-5 -0.64043454,0.95225 -1.23638863,1.96229 -1.50129943,3.07887 -8e-7,0 -1.6e-6,10e-6 -2.4e-6,10e-6 -0.6973965,-2.88441 -2.0397346,-5.57434 -3.5047052,-8.15505 -1.8761261,-3.30501 -4.0714824,-6.42624 -6.5040088,-9.34612 -2.515084,-3.01899 -5.292086,-5.83545 -8.412119,-8.22403 -2.770907,-2.1213 -5.841982,-3.94872 -9.229037,-4.78878 4e-6,1e-5 8e-6,1e-5 1.2e-5,2e-5 3.24903,4.29901 5.791626,9.29566 6.327109,14.65765 0.309675,3.10089 -0.101792,6.2685 -1.180197,9.19227 -1.36735,3.70716 -3.72827,6.98898 -6.491004,9.81387 0.03116,0 0.06302,-0.0151 0.07713,-0.0429 0.01921,-0.0378 0.01589,-0.083 0.01022,-0.12502 0,-10e-6 -10e-7,-10e-6 -10e-7,-10e-6 -0.02248,-0.16667 -0.09619,-0.32189 -0.167325,-0.47428 -1e-6,0 -2e-6,0 -4e-6,-10e-6 -0.276772,-0.59286 -0.634565,-1.14417 -0.99494,-1.69026 -1.180888,-1.78945 -2.50747,-3.47998 -3.904631,-5.10619 -1.556139,-1.81124 -3.206069,-3.55535 -5.074038,-5.04292 -2e-6,0 -5e-6,0 -8e-6,-10e-6 -0.767564,-0.61125 -1.574188,-1.18231 -2.456709,-1.6112 -0.664334,-0.32285 -1.389466,-0.5808 -2.12645,-0.53153 z m 86.25761,0 c 0,0 0,31.55289 0,47.32933 4.372656,-1.61365 8.994606,-2.65132 13.083848,-4.88787 4.217311,-2.30659 7.1937,-6.3653 9.362092,-10.65531 1.270292,1.58781 2.713555,3.02784 4.076722,4.53667 1.7033,1.88532 3.336441,3.84386 4.717631,5.97646 1.481957,2.28817 2.671944,4.78908 3.275429,7.44761 0.667659,2.94123 0.559893,6.04482 -0.249877,8.95014 -10e-7,10e-6 -3e-6,10e-6 -5e-6,2e-5 1.216391,-1.98177 3.07207,-3.4978 5.088843,-4.65523 2.510313,-1.44067 5.180016,-2.58325 7.731398,-3.94987 9.695708,-5.19341 17.746529,-13.01634 24.723619,-21.5192 3.56239,2.45828 6.62649,5.61434 9.06331,9.19144 0,0 1e-5,10e-6 1e-5,10e-6 2.05711,3.01972 3.67608,6.30989 5.38459,9.53965 l 0,-47.05061 c -1.93826,3.31988 -4.39961,6.34179 -7.33556,8.82344 -1.75733,1.48541 -3.80336,2.65134 -5.3373,4.36647 -2.24003,-1.59721 -4.59115,-3.04546 -6.72991,-4.77593 -0.54361,-0.43983 -1.07544,-0.91137 -1.45806,-1.49666 -0.30606,-0.46818 -0.47983,-1.01685 -0.52411,-1.57443 -0.1441,-1.81468 0.41792,-3.60667 0.74176,-5.39803 0.70276,-3.8874 1.17139,-7.81558 1.44188,-11.75672 -0.006,0.004 -0.0114,0.008 -0.017,0.0123 -0.0159,0.0116 -0.0318,0.0232 -0.0477,0.0348 -0.0614,0.0448 -0.12263,0.0898 -0.18386,0.13478 0,0 -1e-5,1e-5 -1e-5,1e-5 -0.23227,0.17076 -0.46382,0.3425 -0.69493,0.51483 -0.83382,0.62177 -1.66183,1.25132 -2.48528,1.88676 -2.59991,2.00628 -5.15617,4.0698 -7.646505,6.21059 -2.7796,2.38945 -5.497752,4.86129 -7.965271,7.57182 -1.033877,1.1357 -2.026644,2.31389 -2.883741,3.58829 -0.640441,0.95226 -1.236402,1.96231 -1.501313,3.0789 -0.697396,-2.88441 -2.039735,-5.57434 -3.504705,-8.15505 -1.876126,-3.30501 -4.071483,-6.42624 -6.504009,-9.34612 -2.515084,-3.01899 -5.292086,-5.83545 -8.412119,-8.22403 -2.770907,-2.1213 -5.841982,-3.94872 -9.229037,-4.78878 3.249036,4.29902 5.791637,9.29568 6.327121,14.65767 0.309675,3.10089 -0.101792,6.2685 -1.180197,9.19227 -1.36735,3.70716 -3.72827,6.98898 -6.491004,9.81387 0.03116,0 0.06302,-0.0151 0.07713,-0.0429 3e-6,-10e-6 7e-6,-10e-6 10e-6,-2e-5 0.0192,-0.0378 0.01588,-0.083 0.01021,-0.125 0,-10e-6 -1e-6,-10e-6 -1e-6,-10e-6 -0.02248,-0.16667 -0.09618,-0.32189 -0.167325,-0.47428 -10e-7,0 -2e-6,0 -4e-6,-10e-6 -0.276772,-0.59286 -0.634565,-1.14417 -0.99494,-1.69026 -1.180888,-1.78945 -2.50747,-3.47998 -3.904631,-5.10619 -4e-6,0 -9e-6,-10e-6 -1.3e-5,-10e-6 -1.556135,-1.81124 -3.206061,-3.55534 -5.074025,-5.04291 -2e-6,0 -5e-6,0 -8e-6,-10e-6 -0.767564,-0.61125 -1.574188,-1.18231 -2.456709,-1.6112 -0.664334,-0.32285 -1.389466,-0.5808 -2.12645,-0.53153 z m 86.25761,0 c 0,0 0,31.55289 0,47.32933 4.37266,-1.61365 8.99461,-2.65132 13.08385,-4.88787 4.21731,-2.30659 7.1937,-6.3653 9.36209,-10.65531 1.27029,1.58781 2.71355,3.02783 4.07671,4.53666 0,0 1e-5,10e-6 1e-5,2e-5 1.7033,1.88531 3.33644,3.84385 4.71763,5.97644 1.48196,2.28818 2.67195,4.78909 3.27543,7.44762 0.66766,2.94123 0.55989,6.04483 -0.24988,8.95015 0,0 0,10e-6 0,10e-6 1.21639,-1.98177 3.07207,-3.4978 5.08884,-4.65523 2.51032,-1.44067 5.18002,-2.58325 7.7314,-3.94987 9.69571,-5.19341 17.74653,-13.01634 24.72362,-21.5192 3.56239,2.45828 6.62649,5.61434 9.06331,9.19144 0,0 1e-5,10e-6 1e-5,10e-6 2.05711,3.01972 3.67608,6.30989 5.38459,9.53965 l 0,-47.05061 c -1.93826,3.31988 -4.39961,6.34179 -7.33556,8.82344 -1.75733,1.48541 -3.80336,2.65134 -5.3373,4.36647 -2.24003,-1.59721 -4.59115,-3.04546 -6.72991,-4.77593 0,0 -1e-5,-1e-5 -1e-5,-1e-5 -0.54361,-0.43983 -1.07543,-0.91137 -1.45805,-1.49665 -0.30606,-0.46818 -0.47983,-1.01685 -0.52411,-1.57443 -0.1441,-1.81468 0.41792,-3.60667 0.74176,-5.39803 0,0 0,-10e-6 1e-5,-2e-5 0.70275,-3.88739 1.17138,-7.81557 1.44187,-11.7567 -3e-5,2e-5 -4e-5,3e-5 -4e-5,3e-5 -0.006,0.004 -0.0113,0.008 -0.0169,0.0123 -0.0159,0.0116 -0.0318,0.0232 -0.0477,0.0348 0,0 0,0 -10e-6,0 -0.0614,0.0448 -0.12264,0.0898 -0.18387,0.13479 0,0 0,0 0,0 -0.23227,0.17076 -0.46382,0.3425 -0.69493,0.51483 -0.83382,0.62177 -1.66183,1.25132 -2.48528,1.88676 -2.59991,2.00628 -5.15617,4.0698 -7.6465,6.21059 -2.7796,2.38945 -5.49776,4.86129 -7.96528,7.57182 0,10e-6 -1e-5,10e-6 -1e-5,2e-5 -1.03387,1.13569 -2.02663,2.31388 -2.88373,3.58827 -0.64044,0.95226 -1.2364,1.96231 -1.50131,3.0789 -0.6974,-2.88441 -2.03973,-5.57434 -3.50471,-8.15505 -1.87612,-3.30501 -4.07148,-6.42624 -6.504,-9.34612 -2.51509,-3.01899 -5.29209,-5.83545 -8.41212,-8.22403 -2.77091,-2.1213 -5.84199,-3.94872 -9.22904,-4.78878 3.24904,4.29902 5.79164,9.29568 6.32712,14.65767 0.30968,3.10089 -0.10179,6.2685 -1.1802,9.19227 -1.36735,3.70716 -3.72827,6.98898 -6.491,9.81387 0.0312,0 0.063,-0.0151 0.0771,-0.0429 1e-5,-10e-6 1e-5,-10e-6 1e-5,-2e-5 0.0192,-0.0378 0.0159,-0.083 0.0102,-0.125 0,-10e-6 0,-10e-6 0,-10e-6 -0.0225,-0.16667 -0.0962,-0.32189 -0.16733,-0.47428 0,0 0,0 0,-10e-6 -0.27678,-0.59286 -0.63457,-1.14417 -0.99494,-1.69026 -1.18089,-1.78945 -2.50747,-3.47998 -3.90463,-5.10619 -1.55614,-1.81124 -3.20607,-3.55535 -5.07404,-5.04292 -1e-5,0 -1e-5,0 -1e-5,-10e-6 -0.76756,-0.61125 -1.57419,-1.18231 -2.45671,-1.6112 -0.66433,-0.32285 -1.38947,-0.5808 -2.12645,-0.53153 z m 86.25761,0 c 0,0 0,31.55289 0,47.32933 4.37266,-1.61365 8.99461,-2.65132 13.08385,-4.88787 4.21731,-2.30659 7.1937,-6.3653 9.36209,-10.65531 1.27029,1.58781 2.71355,3.02784 4.07672,4.53667 0,0 0,0 0,10e-6 1.7033,1.88531 3.33644,3.84385 4.71763,5.97644 1.48196,2.28818 2.67195,4.78909 3.27543,7.44762 0.66766,2.94123 0.55989,6.04483 -0.24988,8.95015 0,0 0,10e-6 0,10e-6 1.21639,-1.98177 3.07207,-3.4978 5.08884,-4.65523 2.51032,-1.44067 5.18002,-2.58325 7.7314,-3.94987 9.69571,-5.19341 17.74653,-13.01634 24.72362,-21.5192 3.56239,2.45828 6.62649,5.61434 9.06331,9.19144 0,0 1e-5,10e-6 1e-5,10e-6 2.05711,3.01972 3.67608,6.30989 5.38459,9.53965 l 0,-47.05061 c -1.93826,3.31988 -4.39961,6.34179 -7.33557,8.82345 -1.75732,1.4854 -3.80335,2.65133 -5.33729,4.36646 -2.24003,-1.59721 -4.59115,-3.04546 -6.72991,-4.77593 -0.54361,-0.43983 -1.07544,-0.91137 -1.45806,-1.49666 -0.30606,-0.46818 -0.47983,-1.01685 -0.52411,-1.57443 -0.1441,-1.81468 0.41792,-3.60667 0.74176,-5.39803 0.70276,-3.8874 1.17139,-7.81558 1.44188,-11.75672 -0.006,0.004 -0.0114,0.008 -0.017,0.0123 -0.0159,0.0116 -0.0318,0.0232 -0.0477,0.0348 0,0 0,0 -10e-6,0 -0.0614,0.0448 -0.12263,0.0898 -0.18386,0.13478 0,0 -10e-6,1e-5 -10e-6,1e-5 -0.23227,0.17076 -0.46382,0.3425 -0.69493,0.51483 -0.83382,0.62177 -1.66183,1.25132 -2.48528,1.88676 -2.59991,2.00628 -5.15617,4.0698 -7.6465,6.21059 -2.7796,2.38945 -5.49776,4.86129 -7.96528,7.57182 0,10e-6 -10e-6,10e-6 -10e-6,2e-5 -1.03387,1.13569 -2.02663,2.31388 -2.88373,3.58827 -0.64044,0.95226 -1.2364,1.96231 -1.50131,3.0789 -0.6974,-2.88441 -2.03973,-5.57434 -3.50471,-8.15505 -1.87612,-3.30501 -4.07148,-6.42624 -6.504,-9.34612 -2.51509,-3.01899 -5.29209,-5.83545 -8.41212,-8.22403 -2.77091,-2.1213 -5.84199,-3.94872 -9.22904,-4.78878 3.24904,4.29902 5.79164,9.29568 6.32712,14.65767 0.30968,3.10089 -0.10179,6.2685 -1.1802,9.19227 -1.36735,3.70716 -3.72827,6.98898 -6.491,9.81387 0.0312,0 0.063,-0.0151 0.0771,-0.0429 1e-5,-10e-6 1e-5,-10e-6 1e-5,-2e-5 0.0192,-0.0378 0.0159,-0.083 0.0102,-0.125 0,-10e-6 0,-10e-6 0,-10e-6 -0.0225,-0.16667 -0.0962,-0.32189 -0.16733,-0.47428 0,0 0,0 0,-10e-6 -0.27678,-0.59286 -0.63457,-1.14417 -0.99494,-1.69026 -1.18089,-1.78945 -2.50747,-3.47998 -3.90463,-5.10619 -1.55614,-1.81124 -3.20607,-3.55535 -5.07404,-5.04292 -1e-5,0 -1e-5,0 -1e-5,-10e-6 -0.76756,-0.61125 -1.57419,-1.18231 -2.45671,-1.6112 -0.66433,-0.32285 -1.38947,-0.5808 -2.12645,-0.53153 z m 86.25761,0 c 0,0 0,31.55289 0,47.32933 4.37266,-1.61365 8.99461,-2.65132 13.08385,-4.88787 4.21731,-2.30659 7.1937,-6.3653 9.36209,-10.65531 1.27029,1.58781 2.71355,3.02784 4.07672,4.53667 0,0 0,0 0,0 1.7033,1.88532 3.33644,3.84386 4.71763,5.97646 1.48196,2.28817 2.67195,4.78908 3.27543,7.44761 0.66766,2.94123 0.55989,6.04483 -0.24988,8.95015 0,0 0,10e-6 0,10e-6 1.21639,-1.98177 3.07207,-3.4978 5.08884,-4.65523 2.51032,-1.44067 5.18002,-2.58325 7.7314,-3.94987 9.69571,-5.19341 17.74653,-13.01634 24.72362,-21.5192 3.56239,2.45828 6.62649,5.61434 9.06331,9.19144 0,0 1e-5,10e-6 1e-5,10e-6 2.05711,3.01972 3.67608,6.30989 5.38459,9.53965 l 0,-47.05061 c -1.93826,3.31988 -4.39961,6.34179 -7.33556,8.82344 -1.75733,1.48541 -3.80336,2.65134 -5.3373,4.36647 -2.24003,-1.59721 -4.59115,-3.04546 -6.72991,-4.77593 -0.54361,-0.43983 -1.07544,-0.91137 -1.45806,-1.49666 -0.30606,-0.46818 -0.47983,-1.01685 -0.52411,-1.57443 -0.1441,-1.81468 0.41792,-3.60667 0.74176,-5.39803 0.70276,-3.8874 1.17139,-7.81558 1.44188,-11.75672 -3e-5,2e-5 -4e-5,3e-5 -4e-5,3e-5 -0.006,0.004 -0.0113,0.008 -0.0169,0.0123 -0.0159,0.0116 -0.0318,0.0232 -0.0477,0.0348 -0.0614,0.0448 -0.12263,0.0898 -0.18386,0.13478 0,0 -10e-6,1e-5 -10e-6,1e-5 -0.23227,0.17076 -0.46382,0.3425 -0.69493,0.51483 -0.83382,0.62177 -1.66183,1.25132 -2.48528,1.88676 -2.59991,2.00627 -5.15616,4.0698 -7.64649,6.21058 0,0 -10e-6,0 -10e-6,10e-6 -2.7796,2.38945 -5.49776,4.86129 -7.96528,7.57182 -1.03387,1.1357 -2.02664,2.31389 -2.88374,3.58829 -0.64044,0.95226 -1.2364,1.96231 -1.50131,3.0789 -0.6974,-2.88441 -2.03973,-5.57434 -3.50471,-8.15505 -1.87612,-3.30501 -4.07148,-6.42624 -6.504,-9.34612 -2.51509,-3.01899 -5.29209,-5.83545 -8.41212,-8.22403 -2.77091,-2.1213 -5.84199,-3.94872 -9.22904,-4.78878 0,1e-5 10e-6,1e-5 10e-6,2e-5 3.24903,4.29901 5.79163,9.29566 6.32711,14.65765 0.30968,3.10089 -0.10179,6.2685 -1.1802,9.19227 -1.36735,3.70716 -3.72827,6.98898 -6.491,9.81387 0.0312,0 0.063,-0.0151 0.0771,-0.0429 1e-5,-10e-6 1e-5,-10e-6 1e-5,-2e-5 0.0192,-0.0378 0.0159,-0.083 0.0102,-0.125 0,-10e-6 0,-10e-6 0,-10e-6 -0.0225,-0.16667 -0.0962,-0.32189 -0.16733,-0.47428 0,0 0,0 0,-10e-6 -0.27678,-0.59286 -0.63457,-1.14417 -0.99494,-1.69026 -1.18089,-1.78945 -2.50747,-3.47998 -3.90463,-5.10619 -1.55614,-1.81124 -3.20607,-3.55534 -5.07403,-5.04291 -10e-6,-10e-6 -2e-5,-10e-6 -2e-5,-2e-5 -0.76756,-0.61125 -1.57419,-1.18231 -2.45671,-1.6112 -0.66433,-0.32285 -1.38947,-0.5808 -2.12645,-0.53153 z m 86.25761,0 c 0,0 0,31.55289 0,47.32933 4.37266,-1.61365 8.99461,-2.65132 13.08385,-4.88787 4.21731,-2.30659 7.1937,-6.3653 9.36209,-10.65531 1.27029,1.58781 2.71355,3.02783 4.07671,4.53666 0,0 1e-5,10e-6 1e-5,10e-6 1.7033,1.88532 3.33644,3.84386 4.71763,5.97646 1.48196,2.28817 2.67195,4.78908 3.27543,7.44761 0.66766,2.94123 0.55989,6.04483 -0.24988,8.95015 0,0 0,10e-6 0,10e-6 1.21639,-1.98177 3.07207,-3.4978 5.08884,-4.65523 2.51032,-1.44067 5.18002,-2.58325 7.7314,-3.94987 9.69571,-5.19341 17.74653,-13.01634 24.72362,-21.5192 3.56239,2.45828 6.62649,5.61434 9.06331,9.19144 0,0 1e-5,10e-6 1e-5,10e-6 2.05711,3.01972 3.67608,6.30989 5.38459,9.53965 l 0,-47.05061 c -1.93826,3.31988 -4.39961,6.34179 -7.33556,8.82344 -1.75733,1.48541 -3.80336,2.65134 -5.3373,4.36647 -2.24003,-1.59721 -4.59115,-3.04546 -6.72991,-4.77593 -0.54361,-0.43983 -1.07544,-0.91137 -1.45806,-1.49666 -0.30606,-0.46818 -0.47983,-1.01685 -0.52411,-1.57443 -0.1441,-1.81468 0.41792,-3.60667 0.74176,-5.39803 0,0 0,-10e-6 10e-6,-2e-5 0.70275,-3.88739 1.17138,-7.81557 1.44187,-11.7567 l -11.07528,8.79412 c -2.7796,2.38944 -5.49775,4.86128 -7.96527,7.57181 0,10e-6 0,10e-6 -10e-6,10e-6 -1.03387,1.1357 -2.02664,2.31389 -2.88374,3.58829 0,10e-6 0,10e-6 -1e-5,2e-5 -0.64043,0.95225 -1.23639,1.96229 -1.5013,3.07887 0,0 0,10e-6 0,10e-6 -0.6974,-2.88441 -2.03973,-5.57434 -3.50471,-8.15505 -1.87612,-3.30501 -4.07148,-6.42624 -6.504,-9.34612 -2.51509,-3.01899 -5.29209,-5.83545 -8.41212,-8.22403 -2.77091,-2.1213 -5.84199,-3.94872 -9.22904,-4.78878 3.24904,4.29902 5.79164,9.29568 6.32712,14.65767 0.30968,3.10089 -0.10179,6.2685 -1.1802,9.19227 -1.36735,3.70716 -3.72827,6.98898 -6.491,9.81387 0.0312,0 0.063,-0.0151 0.0771,-0.0429 0.0192,-0.0378 0.0159,-0.083 0.0102,-0.12502 0,-10e-6 0,-10e-6 0,-10e-6 -0.0225,-0.16667 -0.0962,-0.32189 -0.16733,-0.47428 0,0 0,0 0,-10e-6 -0.27678,-0.59286 -0.63457,-1.14417 -0.99494,-1.69026 -1.18089,-1.78945 -2.50747,-3.47998 -3.90463,-5.10619 -1.55614,-1.81124 -3.20607,-3.55535 -5.07404,-5.04292 -1e-5,0 -1e-5,0 -1e-5,-10e-6 -0.76756,-0.61125 -1.57419,-1.18231 -2.45671,-1.6112 -0.66433,-0.32285 -1.38947,-0.5808 -2.12645,-0.53153 z m 86.25761,0 c 0,0 0,31.55289 0,47.32933 4.37266,-1.61365 8.99461,-2.65132 13.08385,-4.88787 4.21731,-2.30659 7.1937,-6.3653 9.36209,-10.65531 1.27029,1.58781 2.71355,3.02784 4.07672,4.53667 0,0 0,0 0,0 1.7033,1.88532 3.33644,3.84386 4.71763,5.97645 1.48196,2.28818 2.67195,4.78909 3.27543,7.44762 0.66766,2.94123 0.55989,6.04483 -0.24988,8.95015 0,0 0,10e-6 0,10e-6 1.21639,-1.98177 3.07207,-3.4978 5.08884,-4.65523 2.51032,-1.44067 5.18002,-2.58325 7.7314,-3.94987 9.69571,-5.19341 17.74653,-13.01634 24.72362,-21.5192 3.56239,2.45828 6.62649,5.61434 9.06331,9.19144 0,0 10e-6,10e-6 10e-6,10e-6 2.05711,3.01972 3.67608,6.30989 5.38459,9.53965 l 0,-47.05061 c -1.93826,3.31988 -4.39961,6.34179 -7.33556,8.82344 -1.75733,1.48541 -3.80336,2.65134 -5.3373,4.36647 -2.24003,-1.59721 -4.59115,-3.04546 -6.72991,-4.77593 0,0 -1e-5,-1e-5 -1e-5,-1e-5 -0.54361,-0.43983 -1.07543,-0.91137 -1.45805,-1.49665 -0.30606,-0.46818 -0.47983,-1.01685 -0.52411,-1.57443 -0.1441,-1.81468 0.41792,-3.60667 0.74176,-5.39803 0,0 0,-10e-6 1e-5,-2e-5 0.70275,-3.88739 1.17138,-7.81557 1.44187,-11.7567 -3e-5,2e-5 -4e-5,3e-5 -4e-5,3e-5 -0.006,0.004 -0.0113,0.008 -0.0169,0.0123 -0.0159,0.0116 -0.0318,0.0232 -0.0477,0.0348 0,0 0,0 -10e-6,0 -0.0614,0.0448 -0.12264,0.0898 -0.18387,0.13479 0,0 0,0 0,0 -0.23227,0.17076 -0.46382,0.3425 -0.69493,0.51483 -0.83382,0.62177 -1.66183,1.25132 -2.48528,1.88676 -2.59991,2.00628 -5.15617,4.0698 -7.6465,6.21059 -2.7796,2.38945 -5.49776,4.86129 -7.96528,7.57182 0,10e-6 -10e-6,10e-6 -10e-6,2e-5 -1.03387,1.13569 -2.02663,2.31388 -2.88373,3.58827 -0.64044,0.95226 -1.2364,1.96231 -1.50131,3.0789 -0.6974,-2.88441 -2.03973,-5.57434 -3.50471,-8.15505 -1.87612,-3.30501 -4.07148,-6.42624 -6.504,-9.34612 -2.51509,-3.01899 -5.29209,-5.83545 -8.41212,-8.22403 -2.77091,-2.1213 -5.84199,-3.94872 -9.22904,-4.78878 3.24904,4.29902 5.79164,9.29568 6.32712,14.65767 0.30968,3.10089 -0.10179,6.2685 -1.1802,9.19227 -1.36735,3.70716 -3.72827,6.98898 -6.491,9.81387 0.0312,0 0.063,-0.0151 0.0771,-0.0429 1e-5,-10e-6 1e-5,-10e-6 1e-5,-2e-5 0.0192,-0.0378 0.0159,-0.083 0.0102,-0.125 0,-10e-6 0,-10e-6 0,-10e-6 -0.0225,-0.16667 -0.0962,-0.32189 -0.16733,-0.47428 0,0 0,0 0,-10e-6 -0.27678,-0.59286 -0.63457,-1.14417 -0.99494,-1.69026 -1.18089,-1.78945 -2.50747,-3.47998 -3.90463,-5.10619 -1.55614,-1.81124 -3.20607,-3.55535 -5.07404,-5.04292 -1e-5,0 -1e-5,0 -1e-5,-10e-6 -0.76756,-0.61125 -1.57419,-1.18231 -2.45671,-1.6112 -0.66433,-0.32285 -1.38947,-0.5808 -2.12645,-0.53153 z m 86.25761,0 c 0,0 0,31.55289 0,47.32933 4.37266,-1.61365 8.99461,-2.65132 13.08385,-4.88787 4.21731,-2.30659 7.1937,-6.3653 9.36209,-10.65531 1.27029,1.58781 2.71355,3.02784 4.07672,4.53667 0,0 0,0 0,10e-6 1.7033,1.88531 3.33644,3.84385 4.71763,5.97644 1.48196,2.28818 2.67195,4.78909 3.27543,7.44762 0.66766,2.94123 0.55989,6.04483 -0.24988,8.95015 0,0 0,10e-6 0,10e-6 1.21639,-1.98177 3.07207,-3.4978 5.08884,-4.65523 2.51032,-1.44067 5.18002,-2.58325 7.7314,-3.94987 9.69571,-5.19341 17.74653,-13.01634 24.72362,-21.5192 3.56239,2.45828 6.62649,5.61434 9.06331,9.19144 0,0 10e-6,10e-6 10e-6,10e-6 2.05711,3.01972 3.67608,6.30989 5.38459,9.53965 l 0,-47.05061 c -1.93826,3.31988 -4.39961,6.34179 -7.33556,8.82344 -1.75733,1.48541 -3.80336,2.65134 -5.3373,4.36647 -2.24003,-1.59721 -4.59115,-3.04546 -6.72991,-4.77593 0,0 -1e-5,-1e-5 -1e-5,-1e-5 -0.54361,-0.43983 -1.07543,-0.91137 -1.45805,-1.49665 -0.30606,-0.46818 -0.47983,-1.01685 -0.52411,-1.57443 -0.1441,-1.81468 0.41792,-3.60667 0.74176,-5.39803 0.70276,-3.8874 1.17139,-7.81558 1.44188,-11.75672 -0.006,0.004 -0.0114,0.008 -0.017,0.0123 -0.0159,0.0116 -0.0318,0.0232 -0.0477,0.0348 -0.0614,0.0448 -0.12263,0.0898 -0.18386,0.13478 0,0 -10e-6,1e-5 -10e-6,1e-5 -0.23227,0.17076 -0.46382,0.3425 -0.69493,0.51483 -0.83382,0.62177 -1.66183,1.25132 -2.48528,1.88676 -2.59991,2.00628 -5.15617,4.0698 -7.6465,6.21059 -2.7796,2.38945 -5.49776,4.86129 -7.96528,7.57182 0,10e-6 -10e-6,10e-6 -10e-6,2e-5 -1.03387,1.13569 -2.02663,2.31388 -2.88373,3.58827 -0.64044,0.95226 -1.2364,1.96231 -1.50131,3.0789 -0.6974,-2.88441 -2.03973,-5.57434 -3.50471,-8.15505 -1.87612,-3.30501 -4.07148,-6.42624 -6.504,-9.34612 -2.51509,-3.01899 -5.29209,-5.83545 -8.41212,-8.22403 -2.77091,-2.1213 -5.84199,-3.94872 -9.22904,-4.78878 3.24904,4.29902 5.79164,9.29568 6.32712,14.65767 0.30968,3.10089 -0.10179,6.2685 -1.1802,9.19227 -1.36735,3.70716 -3.72827,6.98898 -6.491,9.81387 0.0312,0 0.063,-0.0151 0.0771,-0.0429 10e-6,-10e-6 10e-6,-10e-6 10e-6,-2e-5 0.0192,-0.0378 0.0159,-0.083 0.0102,-0.125 0,-10e-6 0,-10e-6 0,-10e-6 -0.0225,-0.16666 -0.0962,-0.32189 -0.16733,-0.47427 0,0 0,-10e-6 0,-2e-5 -0.27678,-0.59286 -0.63457,-1.14417 -0.99494,-1.69026 -1.18089,-1.78945 -2.50747,-3.47998 -3.90463,-5.10619 -1.55614,-1.81124 -3.20607,-3.55534 -5.07403,-5.04291 -10e-6,-10e-6 -2e-5,-10e-6 -2e-5,-2e-5 -0.76756,-0.61125 -1.57419,-1.18231 -2.45671,-1.6112 -0.66433,-0.32285 -1.38947,-0.5808 -2.12645,-0.53153 z m 86.25761,0 c 0,0 0,31.55289 0,47.32933 4.37266,-1.61365 8.99461,-2.65132 13.08385,-4.88787 4.21731,-2.30659 7.1937,-6.3653 9.36209,-10.65531 1.27029,1.58781 2.71355,3.02784 4.07672,4.53667 0,0 0,0 0,0 1.7033,1.88532 3.33644,3.84386 4.71763,5.97646 1.48196,2.28817 2.67195,4.78908 3.27543,7.44761 0.66766,2.94124 0.55989,6.04483 -0.24988,8.95016 1.21639,-1.98177 3.07207,-3.4978 5.08884,-4.65523 2.51032,-1.44067 5.18002,-2.58325 7.7314,-3.94987 9.69571,-5.19341 17.74653,-13.01634 24.72362,-21.5192 3.56239,2.45828 6.62649,5.61434 9.06331,9.19144 0,0 10e-6,10e-6 10e-6,10e-6 2.05711,3.01972 3.67608,6.30989 5.38459,9.53965 l 0,-47.05061 c -1.93826,3.31988 -4.39961,6.34179 -7.33556,8.82344 -1.75733,1.48541 -3.80336,2.65134 -5.3373,4.36647 -2.24003,-1.59721 -4.59115,-3.04546 -6.72991,-4.77593 0,0 -1e-5,-1e-5 -1e-5,-1e-5 -0.54361,-0.43983 -1.07543,-0.91137 -1.45805,-1.49665 -0.30606,-0.46818 -0.47983,-1.01685 -0.52411,-1.57443 -0.1441,-1.81468 0.41792,-3.60667 0.74176,-5.39803 0.70276,-3.8874 1.17139,-7.81558 1.44188,-11.75672 -0.006,0.004 -0.0114,0.008 -0.017,0.0123 -0.0159,0.0116 -0.0318,0.0232 -0.0477,0.0348 0,0 0,0 -10e-6,0 -0.0614,0.0448 -0.12263,0.0898 -0.18386,0.13478 0,0 -10e-6,1e-5 -10e-6,1e-5 -0.23227,0.17076 -0.46382,0.3425 -0.69493,0.51483 -0.83382,0.62177 -1.66183,1.25132 -2.48528,1.88676 -2.59991,2.00628 -5.15617,4.0698 -7.6465,6.21059 -2.7796,2.38945 -5.49776,4.86129 -7.96528,7.57182 0,10e-6 -10e-6,10e-6 -10e-6,2e-5 -1.03387,1.13569 -2.02663,2.31388 -2.88373,3.58827 0,10e-6 0,10e-6 -10e-6,2e-5 -0.64043,0.95225 -1.23639,1.96229 -1.5013,3.07888 -0.6974,-2.88441 -2.03973,-5.57434 -3.50471,-8.15505 -1.87612,-3.30501 -4.07148,-6.42624 -6.504,-9.34612 -2.51509,-3.01899 -5.29209,-5.83545 -8.41212,-8.22403 -2.77091,-2.1213 -5.84199,-3.94872 -9.22904,-4.78878 3.24904,4.29902 5.79164,9.29568 6.32712,14.65767 0.30968,3.10089 -0.10179,6.2685 -1.1802,9.19227 -1.36735,3.70716 -3.72827,6.98898 -6.491,9.81387 0.0312,0 0.063,-0.0151 0.0771,-0.0429 10e-6,-10e-6 10e-6,-10e-6 10e-6,-2e-5 0.0192,-0.0378 0.0159,-0.083 0.0102,-0.125 0,-10e-6 0,-10e-6 0,-10e-6 0,0 0,0 0,0 -0.0225,-0.16667 -0.0962,-0.3219 -0.16733,-0.47429 -0.27678,-0.59286 -0.63457,-1.14417 -0.99494,-1.69026 -1.18089,-1.78945 -2.50747,-3.47998 -3.90463,-5.10619 -1.55614,-1.81124 -3.20607,-3.55535 -5.07404,-5.04292 -10e-6,0 -10e-6,0 -10e-6,-10e-6 -0.76756,-0.61125 -1.57419,-1.18231 -2.45671,-1.6112 -0.66433,-0.32285 -1.38947,-0.5808 -2.12645,-0.53153 z m 86.25761,0 c 0,0 0,31.55289 0,47.32933 4.37266,-1.61365 8.99461,-2.65132 13.08385,-4.88787 4.21731,-2.30659 7.1937,-6.3653 9.36209,-10.65531 1.27029,1.58781 2.71355,3.02783 4.07671,4.53666 0,0 10e-6,10e-6 10e-6,10e-6 1.7033,1.88532 3.33644,3.84386 4.71763,5.97646 1.48196,2.28817 2.67195,4.78908 3.27543,7.44761 0.66766,2.94123 0.55989,6.04483 -0.24988,8.95015 0,0 0,10e-6 0,10e-6 1.21639,-1.98177 3.07207,-3.4978 5.08884,-4.65523 2.51032,-1.44067 5.18002,-2.58325 7.7314,-3.94987 9.69571,-5.19341 17.74653,-13.01634 24.72362,-21.5192 3.56239,2.45828 6.62649,5.61434 9.06331,9.19144 0,0 10e-6,10e-6 10e-6,10e-6 2.05711,3.01972 3.67608,6.30989 5.38459,9.53965 l 0,-47.05061 c -1.93826,3.31988 -4.39961,6.34179 -7.33556,8.82344 -1.75733,1.48541 -3.80336,2.65134 -5.3373,4.36647 -2.24003,-1.59721 -4.59115,-3.04546 -6.72991,-4.77593 0,0 -1e-5,-1e-5 -1e-5,-1e-5 -0.54361,-0.43983 -1.07543,-0.91137 -1.45805,-1.49665 -0.30606,-0.46818 -0.47983,-1.01685 -0.52411,-1.57443 -0.1441,-1.81468 0.41792,-3.60667 0.74176,-5.39803 0.70276,-3.8874 1.17139,-7.81558 1.44188,-11.75672 -3e-5,2e-5 -4e-5,3e-5 -4e-5,3e-5 -0.006,0.004 -0.0113,0.008 -0.0169,0.0123 -0.0159,0.0116 -0.0318,0.0232 -0.0477,0.0348 0,0 0,0 -10e-6,0 -0.0614,0.0448 -0.12263,0.0898 -0.18386,0.13478 0,0 -10e-6,1e-5 -10e-6,1e-5 -0.23227,0.17076 -0.46382,0.3425 -0.69493,0.51483 -0.83382,0.62177 -1.66183,1.25132 -2.48528,1.88676 -2.59991,2.00628 -5.15616,4.0698 -7.6465,6.21058 0,0 0,10e-6 0,10e-6 -2.7796,2.38945 -5.49776,4.86129 -7.96528,7.57182 -1.03387,1.1357 -2.02664,2.31389 -2.88374,3.58829 -0.64044,0.95226 -1.2364,1.96231 -1.50131,3.0789 -0.6974,-2.88441 -2.03973,-5.57434 -3.50471,-8.15505 -1.87612,-3.30501 -4.07148,-6.42624 -6.504,-9.34612 -2.51509,-3.01899 -5.29209,-5.83545 -8.41212,-8.22403 -2.77091,-2.1213 -5.84199,-3.94872 -9.22904,-4.78878 3.24904,4.29902 5.79164,9.29568 6.32712,14.65767 0.30968,3.10089 -0.10179,6.2685 -1.1802,9.19227 -1.36735,3.70716 -3.72827,6.98898 -6.491,9.81387 0.0312,0 0.063,-0.0151 0.0771,-0.0429 10e-6,-10e-6 10e-6,-10e-6 10e-6,-2e-5 0.0192,-0.0378 0.0159,-0.083 0.0102,-0.12501 0,0 0,0 0,0 -0.0225,-0.16666 -0.0962,-0.32189 -0.16733,-0.47427 0,0 0,-10e-6 0,-2e-5 -0.27678,-0.59286 -0.63457,-1.14417 -0.99494,-1.69026 -1.18089,-1.78945 -2.50747,-3.47998 -3.90463,-5.10619 -1e-5,0 -1e-5,-10e-6 -2e-5,-10e-6 -1.55613,-1.81124 -3.20606,-3.55534 -5.07402,-5.04291 -10e-6,0 -10e-6,0 -10e-6,-10e-6 -0.76756,-0.61125 -1.57419,-1.18231 -2.45671,-1.6112 -0.66433,-0.32285 -1.38947,-0.5808 -2.12645,-0.53153 z m 86.25761,0 c 0,0 0,31.55289 0,47.32933 4.37266,-1.61365 8.99461,-2.65132 13.08385,-4.88787 4.21731,-2.30659 7.1937,-6.3653 9.36209,-10.65531 1.27029,1.58781 2.71355,3.02784 4.07672,4.53667 0,0 0,0 0,0 1.7033,1.88532 3.33644,3.84386 4.71763,5.97646 1.48196,2.28817 2.67195,4.78908 3.27543,7.44761 0.66766,2.94123 0.55989,6.04483 -0.24988,8.95015 0,0 0,10e-6 0,10e-6 1.21639,-1.98177 3.07207,-3.4978 5.08884,-4.65523 2.51032,-1.44067 5.18002,-2.58325 7.7314,-3.94987 9.69571,-5.19341 17.74653,-13.01634 24.72362,-21.5192 3.56239,2.45828 6.62649,5.61434 9.06331,9.19144 0,0 10e-6,10e-6 10e-6,10e-6 2.05711,3.01972 3.67608,6.30989 5.38459,9.53965 l 0,-47.05061 c -1.93826,3.31988 -4.39961,6.34179 -7.33556,8.82344 -1.75733,1.48541 -3.80336,2.65134 -5.3373,4.36647 -2.24003,-1.59721 -4.59115,-3.04546 -6.72991,-4.77593 0,0 -1e-5,-1e-5 -1e-5,-1e-5 -0.54361,-0.43983 -1.07543,-0.91137 -1.45805,-1.49665 -0.30606,-0.46818 -0.47983,-1.01685 -0.52411,-1.57443 -0.1441,-1.81468 0.41792,-3.60667 0.74176,-5.39803 0,0 0,-10e-6 10e-6,-2e-5 0.70275,-3.88739 1.17138,-7.81557 1.44187,-11.7567 -0.006,0.004 -0.0114,0.008 -0.017,0.0123 -0.0159,0.0116 -0.0318,0.0232 -0.0477,0.0348 0,0 0,0 -10e-6,0 -0.0614,0.0448 -0.12264,0.0898 -0.18387,0.13479 0,0 0,0 0,0 -0.23227,0.17076 -0.46382,0.3425 -0.69493,0.51483 -0.83382,0.62177 -1.66183,1.25132 -2.48528,1.88676 -2.59991,2.00628 -5.15616,4.0698 -7.6465,6.21058 0,0 0,10e-6 0,10e-6 -2.7796,2.38945 -5.49776,4.86129 -7.96528,7.57182 0,10e-6 -10e-6,10e-6 -10e-6,2e-5 -1.03387,1.13569 -2.02663,2.31388 -2.88373,3.58827 -0.64044,0.95226 -1.2364,1.96231 -1.50131,3.0789 -0.6974,-2.88441 -2.03973,-5.57434 -3.50471,-8.15505 -1.87612,-3.30501 -4.07148,-6.42624 -6.504,-9.34612 -2.51509,-3.01899 -5.29209,-5.83545 -8.41212,-8.22403 -2.77091,-2.1213 -5.84199,-3.94872 -9.22904,-4.78878 3.24904,4.29902 5.79164,9.29568 6.32712,14.65767 0.30968,3.10089 -0.10179,6.2685 -1.1802,9.19227 -1.36735,3.70716 -3.72827,6.98898 -6.491,9.81387 0.0312,0 0.063,-0.0151 0.0771,-0.0429 10e-6,-10e-6 10e-6,-10e-6 10e-6,-2e-5 0.0192,-0.0378 0.0159,-0.083 0.0102,-0.125 0,-10e-6 0,-10e-6 0,-10e-6 -0.0225,-0.16667 -0.0962,-0.32189 -0.16733,-0.47428 0,0 0,0 0,-10e-6 -0.27678,-0.59286 -0.63457,-1.14417 -0.99494,-1.69026 -1.18089,-1.78945 -2.50747,-3.47998 -3.90463,-5.10619 -1e-5,0 -1e-5,-10e-6 -2e-5,-10e-6 -1.55613,-1.81124 -3.20606,-3.55534 -5.07402,-5.04291 -10e-6,0 -10e-6,0 -10e-6,-10e-6 -0.76756,-0.61125 -1.57419,-1.18231 -2.45671,-1.6112 -0.66433,-0.32285 -1.38947,-0.5808 -2.12645,-0.53153 z"
       id="path3838"
       inkscape:connector-curvature="0"
       transform="translate(0,352.36218)"
       inkscape:path-effect="#path-effect4020;#path-effect4040"
       inkscape:original-d="m -131.31983,619.1878 1062.68048,0" />
    <path
       style="fill:#91c373;fill-opacity:1;stroke:none"
       d="m -153.8266,921.93904 c 0,0.82408 0,35.02371 0,35.02371 10.87835,-2.97073 16.52993,-2.84071 22.44594,-11.50196 4.08253,3.77622 15.42911,10.33165 11.8199,19.91406 5.17155,-6.23494 16.50114,-3.31512 37.54386,-22.29198 8.11156,4.14215 11.24129,9.37528 14.44791,13.86101 l 0,-34.81745 c -4.98329,6.31625 -10.35393,7.84184 -12.67286,9.76054 -13.03784,-6.87931 -8.01822,-2.43839 -6.52844,-18.50131 0,0 -21.69749,11.65437 -23.42561,17.04451 -2.18843,-6.69795 -15.28485,-20.31091 -27.64987,-22.58034 5.66423,5.54609 11.65612,15.07464 -1.34408,24.91122 1.19117,0 -9.59104,-11.07165 -14.63675,-10.82201 z m 67.55761,0 c 0,0.82408 0,35.02371 0,35.02371 10.87835,-2.97073 16.52993,-2.84071 22.44594,-11.50196 4.08253,3.77622 15.42911,10.33165 11.8199,19.91406 5.17155,-6.23494 16.50114,-3.31512 37.54386,-22.29198 8.11156,4.14215 11.24129,9.37528 14.44791,13.86101 l 0,-34.81745 c -4.98329,6.31625 -10.35393,7.84184 -12.67286,9.76054 -13.03784,-6.87931 -8.01822,-2.43839 -6.52844,-18.50131 0,0 -21.69749,11.65437 -23.42561,17.04451 -2.18843,-6.69795 -15.28485,-20.31091 -27.64987,-22.58034 5.66423,5.54609 11.65612,15.07464 -1.34408,24.91122 1.19117,0 -9.59104,-11.07165 -14.63675,-10.82201 z m 67.55761,0 c 0,0.82408 0,35.02371 0,35.02371 10.87835,-2.97073 16.52993,-2.84071 22.44594,-11.50196 4.08253,3.77622 15.42911,10.33165 11.8199,19.91406 5.17155,-6.23494 16.50114,-3.31512 37.54386,-22.29198 8.11156,4.14215 11.24129,9.37528 14.44791,13.86101 l 0,-34.81745 c -4.98329,6.31625 -10.35393,7.84184 -12.67286,9.76054 -13.03784,-6.87931 -8.01822,-2.43839 -6.52844,-18.50131 0,0 -21.69749,11.65437 -23.42561,17.04451 -2.18843,-6.69795 -15.28485,-20.31091 -27.64987,-22.58034 5.66423,5.54609 11.65612,15.07464 -1.34408,24.91122 1.19117,0 -9.59104,-11.07165 -14.63675,-10.82201 z m 67.55761,0 c 0,0.82408 0,35.02371 0,35.02371 10.87835,-2.97073 16.52993,-2.84071 22.44594,-11.50196 4.08253,3.77622 15.42911,10.33165 11.8199,19.91406 5.17155,-6.23494 16.50114,-3.31512 37.54386,-22.29198 8.11156,4.14215 11.24129,9.37528 14.44791,13.86101 l 0,-34.81745 c -4.98329,6.31625 -10.35393,7.84184 -12.67286,9.76054 -13.03784,-6.87931 -8.01822,-2.43839 -6.52844,-18.50131 0,0 -21.69749,11.65437 -23.42561,17.04451 -2.18843,-6.69795 -15.28485,-20.31091 -27.64987,-22.58034 5.66423,5.54609 11.65612,15.07464 -1.34408,24.91122 1.19117,0 -9.59104,-11.07165 -14.63675,-10.82201 z m 67.55761,0 c 0,0.82408 0,35.02371 0,35.02371 10.87835,-2.97073 16.52993,-2.84071 22.44594,-11.50196 4.08253,3.77622 15.42911,10.33165 11.8199,19.91406 5.17155,-6.23494 16.50114,-3.31512 37.54386,-22.29198 8.11156,4.14215 11.24129,9.37528 14.44791,13.86101 l 0,-34.81745 c -4.98329,6.31625 -10.35393,7.84184 -12.67286,9.76054 -13.03784,-6.87931 -8.01822,-2.43839 -6.52844,-18.50131 0,0 -21.69749,11.65437 -23.42561,17.04451 -2.18843,-6.69795 -15.28485,-20.31091 -27.64987,-22.58034 5.66423,5.54609 11.65612,15.07464 -1.34408,24.91122 1.19117,0 -9.59104,-11.07165 -14.63675,-10.82201 z m 67.55761,0 c 0,0.82408 0,35.02371 0,35.02371 10.87835,-2.97073 16.52993,-2.84071 22.44594,-11.50196 4.08253,3.77622 15.42911,10.33165 11.8199,19.91406 5.17155,-6.23494 16.50114,-3.31512 37.54386,-22.29198 8.11156,4.14215 11.24129,9.37528 14.44791,13.86101 l 0,-34.81745 c -4.98329,6.31625 -10.35393,7.84184 -12.67286,9.76054 -13.03784,-6.87931 -8.01822,-2.43839 -6.52844,-18.50131 0,0 -21.69749,11.65437 -23.42561,17.04451 -2.18843,-6.69795 -15.28485,-20.31091 -27.64987,-22.58034 5.66423,5.54609 11.65612,15.07464 -1.34408,24.91122 1.19117,0 -9.59104,-11.07165 -14.63675,-10.82201 z m 67.55761,0 c 0,0.82408 0,35.02371 0,35.02371 10.87835,-2.97073 16.52993,-2.84071 22.44594,-11.50196 4.08253,3.77622 15.42911,10.33165 11.8199,19.91406 5.17155,-6.23494 16.50114,-3.31512 37.54386,-22.29198 8.11156,4.14215 11.24129,9.37528 14.44791,13.86101 l 0,-34.81745 c -4.98329,6.31625 -10.35393,7.84184 -12.67286,9.76054 -13.03784,-6.87931 -8.01822,-2.43838 -6.52844,-18.50131 0,0 -21.69749,11.65437 -23.42561,17.04451 -2.18843,-6.69795 -15.28485,-20.31091 -27.64987,-22.58034 5.66423,5.54609 11.65612,15.07464 -1.34408,24.91122 1.19117,0 -9.59104,-11.07165 -14.63675,-10.82201 z m 67.55761,0 c 0,0.82408 0,35.02371 0,35.02371 10.87835,-2.97073 16.52993,-2.84071 22.44594,-11.50196 4.08253,3.77622 15.42911,10.33165 11.8199,19.91406 5.17155,-6.23494 16.50114,-3.31512 37.54386,-22.29198 8.11156,4.14215 11.24129,9.37528 14.44791,13.86101 l 0,-34.81745 c -4.98329,6.31625 -10.35393,7.84184 -12.67286,9.76054 -13.03784,-6.87931 -8.01822,-2.43839 -6.52844,-18.50131 0,0 -21.69749,11.65437 -23.42561,17.04451 -2.18843,-6.69795 -15.28485,-20.31091 -27.64987,-22.58034 5.66423,5.54609 11.65612,15.07464 -1.34408,24.91122 1.19117,0 -9.59104,-11.07165 -14.63675,-10.82201 z m 67.55761,0 c 0,0.82408 0,35.02371 0,35.02371 10.87835,-2.97073 16.52993,-2.84071 22.44594,-11.50196 4.08253,3.77622 15.42911,10.33165 11.8199,19.91406 5.17155,-6.23494 16.50114,-3.31512 37.54386,-22.29198 8.11156,4.14215 11.24129,9.37528 14.44791,13.86101 l 0,-34.81745 c -4.98329,6.31625 -10.35393,7.84184 -12.67286,9.76054 -13.03784,-6.87931 -8.01822,-2.43839 -6.52844,-18.50131 0,0 -21.69749,11.65437 -23.42561,17.04451 -2.18843,-6.69795 -15.28485,-20.31091 -27.64987,-22.58034 5.66423,5.54609 11.65612,15.07464 -1.34408,24.91122 1.19117,0 -9.59104,-11.07165 -14.63675,-10.82201 z m 67.55761,0 c 0,0.82408 0,35.02371 0,35.02371 10.87835,-2.97073 16.52993,-2.84071 22.44594,-11.50196 4.08253,3.77622 15.42911,10.33165 11.8199,19.91406 5.17155,-6.23494 16.50114,-3.31512 37.54386,-22.29198 8.11156,4.14215 11.24129,9.37528 14.44791,13.86101 l 0,-34.81745 c -4.98329,6.31625 -10.35393,7.84184 -12.67286,9.76054 -13.03784,-6.87931 -8.01822,-2.43839 -6.52844,-18.50131 0,0 -21.69749,11.65437 -23.42561,17.04451 -2.18843,-6.69795 -15.28485,-20.31091 -27.64987,-22.58034 5.66423,5.54609 11.65612,15.07464 -1.34408,24.91122 1.19117,0 -9.59104,-11.07165 -14.63675,-10.82201 z m 67.55761,0 c 0,0.82408 0,35.02371 0,35.02371 10.87835,-2.97073 16.52993,-2.84071 22.44594,-11.50196 4.08253,3.77622 15.42911,10.33165 11.8199,19.91406 5.17155,-6.23494 16.50114,-3.31512 37.54386,-22.29198 8.11156,4.14215 11.24129,9.37528 14.44791,13.86101 l 0,-34.81745 c -4.98329,6.31625 -10.35393,7.84184 -12.67286,9.76054 -13.03784,-6.87931 -8.01822,-2.43839 -6.52844,-18.50131 0,0 -21.69749,11.65437 -23.42561,17.04451 -2.18843,-6.69795 -15.28485,-20.31091 -27.64987,-22.58034 5.66423,5.54609 11.65612,15.07464 -1.34408,24.91122 1.19117,0 -9.59104,-11.07165 -14.63675,-10.82201 z m 67.55761,0 c 0,0.82408 0,35.02371 0,35.02371 10.87835,-2.97073 16.52993,-2.84071 22.44594,-11.50196 4.08253,3.77622 15.42911,10.33165 11.8199,19.91406 5.17155,-6.23494 16.50114,-3.31512 37.54386,-22.29198 8.11156,4.14215 11.24129,9.37528 14.44791,13.86101 l 0,-34.81745 c -4.98329,6.31625 -10.35393,7.84184 -12.67286,9.76054 -13.03784,-6.87931 -8.01822,-2.43839 -6.52844,-18.50131 0,0 -21.69749,11.65437 -23.42561,17.04451 -2.18843,-6.69795 -15.28485,-20.31091 -27.64987,-22.58034 5.66423,5.54609 11.65612,15.07464 -1.34408,24.91122 1.19117,0 -9.59104,-11.07165 -14.63675,-10.82201 z m 67.55761,0 c 0,0.82408 0,35.02371 0,35.02371 10.87835,-2.97073 16.52993,-2.84071 22.44594,-11.50196 4.08253,3.77622 15.42911,10.33165 11.8199,19.91406 5.17155,-6.23494 16.50114,-3.31512 37.54386,-22.29198 8.11156,4.14215 11.24129,9.37528 14.44791,13.86101 l 0,-34.81745 c -4.98329,6.31625 -10.35393,7.84184 -12.67286,9.76054 -13.03784,-6.87931 -8.01822,-2.43839 -6.52844,-18.50131 0,0 -21.69749,11.65437 -23.42561,17.04451 -2.18843,-6.69795 -15.28485,-20.31091 -27.64987,-22.58034 5.66423,5.54609 11.65612,15.07464 -1.34408,24.91122 1.19117,0 -9.59104,-11.07165 -14.63675,-10.82201 z m 67.55761,0 c 0,0.82408 0,35.02371 0,35.02371 10.87835,-2.97073 16.52993,-2.84071 22.44594,-11.50196 4.08253,3.77622 15.42911,10.33165 11.8199,19.91406 5.17155,-6.23494 16.50114,-3.31512 37.54386,-22.29198 8.11156,4.14215 11.24129,9.37528 14.44791,13.86101 l 0,-34.81745 c -4.98329,6.31625 -10.35393,7.84184 -12.67286,9.76054 -13.03784,-6.87931 -8.01822,-2.43839 -6.52844,-18.50131 0,0 -21.69749,11.65437 -23.42561,17.04451 -2.18843,-6.69795 -15.28485,-20.31091 -27.64987,-22.58034 5.66423,5.54609 11.65612,15.07464 -1.34408,24.91122 1.19117,0 -9.59104,-11.07165 -14.63675,-10.82201 z m 67.55761,0 c 0,0.82408 0,35.02371 0,35.02371 10.87835,-2.97073 16.52993,-2.84071 22.44594,-11.50196 4.08253,3.77622 15.42911,10.33165 11.8199,19.91406 5.17155,-6.23494 16.50114,-3.31512 37.54386,-22.29198 8.11156,4.14215 11.24129,9.37528 14.44791,13.86101 l 0,-34.81745 c -4.98329,6.31625 -10.35393,7.84184 -12.67286,9.76054 -13.03784,-6.87931 -8.01822,-2.43839 -6.52844,-18.50131 0,0 -21.69749,11.65437 -23.42561,17.04451 -2.18843,-6.69795 -15.28485,-20.31091 -27.64987,-22.58034 5.66423,5.54609 11.65612,15.07464 -1.34408,24.91122 1.19117,0 -9.59104,-11.07165 -14.63675,-10.82201 z m 67.55761,0 c 0,0.82408 0,35.02371 0,35.02371 10.87835,-2.97073 16.52993,-2.84071 22.44594,-11.50196 4.08253,3.77622 15.42911,10.33165 11.8199,19.91406 5.17155,-6.23494 16.50114,-3.31512 37.54386,-22.29198 8.11156,4.14215 11.24129,9.37528 14.44791,13.86101 l 0,-34.81745 c -4.98329,6.31625 -10.35393,7.84184 -12.67286,9.76054 -13.03784,-6.87931 -8.01822,-2.43839 -6.52844,-18.50131 0,0 -21.69749,11.65437 -23.42561,17.04451 -2.18843,-6.69795 -15.28485,-20.31091 -27.64987,-22.58034 5.66423,5.54609 11.65612,15.07464 -1.34408,24.91122 1.19117,0 -9.59104,-11.07165 -14.63675,-10.82201 z"
       id="path4105"
       inkscape:connector-curvature="0"
       inkscape:path-effect="#path-effect5585"
       inkscape:original-d="m -154.0266,936.61234 1141.00109,0" />
  </g>
</svg>
